<svg width="40" height="40" viewBox="0 0 40 40" fill="none" xmlns="http://www.w3.org/2000/svg">
<path d="M22.135 28.385L29.635 20.885C29.7514 20.7689 29.8438 20.6309 29.9068 20.4791C29.9698 20.3272 30.0022 20.1644 30.0022 20C30.0022 19.8356 29.9698 19.6728 29.9068 19.5209C29.8438 19.3691 29.7514 19.2311 29.635 19.115L22.135 11.615C21.9003 11.3803 21.5819 11.2484 21.25 11.2484C20.9181 11.2484 20.5997 11.3803 20.365 11.615C20.1303 11.8497 19.9984 12.1681 19.9984 12.5C19.9984 12.8319 20.1303 13.1503 20.365 13.385L25.7325 18.75H11.25C10.9185 18.75 10.6005 18.8817 10.3661 19.1161C10.1317 19.3505 10 19.6685 10 20C10 20.3315 10.1317 20.6495 10.3661 20.8839C10.6005 21.1183 10.9185 21.25 11.25 21.25H25.7325L20.365 26.615C20.1303 26.8497 19.9984 27.1681 19.9984 27.5C19.9984 27.8319 20.1303 28.1503 20.365 28.385C20.5997 28.6197 20.9181 28.7516 21.25 28.7516C21.5819 28.7516 21.9003 28.6197 22.135 28.385V28.385ZM40 20C40 25.3043 37.8929 30.3914 34.1421 34.1421C30.3914 37.8929 25.3043 40 20 40C14.6957 40 9.60859 37.8929 5.85786 34.1421C2.10714 30.3914 0 25.3043 0 20C0 14.6957 2.10714 9.60859 5.85786 5.85786C9.60859 2.10714 14.6957 0 20 0C25.3043 0 30.3914 2.10714 34.1421 5.85786C37.8929 9.60859 40 14.6957 40 20V20ZM20 37.5C22.2981 37.5 24.5738 37.0474 26.697 36.1679C28.8202 35.2884 30.7493 33.9994 32.3744 32.3744C33.9994 30.7493 35.2884 28.8202 36.1679 26.697C37.0474 24.5738 37.5 22.2981 37.5 20C37.5 17.7019 37.0474 15.4262 36.1679 13.303C35.2884 11.1798 33.9994 9.25066 32.3744 7.62563C30.7493 6.00061 28.8202 4.71157 26.697 3.83211C24.5738 2.95265 22.2981 2.5 20 2.5C15.3587 2.5 10.9075 4.34374 7.62563 7.62563C4.34374 10.9075 2.5 15.3587 2.5 20C2.5 24.6413 4.34374 29.0925 7.62563 32.3744C10.9075 35.6563 15.3587 37.5 20 37.5V37.5Z" fill="white"/>
</svg>
