<svg width="941" height="412" viewBox="0 0 941 412" fill="none" xmlns="http://www.w3.org/2000/svg">
<rect width="941" height="412" rx="33" fill="url(#paint0_linear)"/>
<path d="M86.8 151.48V133H89.6V151.48C89.6 153.747 90.2667 155.533 91.6 156.84C92.96 158.12 94.8267 158.76 97.2 158.76C99.5733 158.76 101.427 158.12 102.76 156.84C104.12 155.533 104.8 153.747 104.8 151.48V133H107.6V151.48C107.6 154.52 106.64 156.947 104.72 158.76C102.773 160.573 100.267 161.48 97.2 161.48C94.1333 161.48 91.6267 160.573 89.68 158.76C87.76 156.947 86.8 154.52 86.8 151.48ZM115.091 146.24C115.091 147.787 116.464 148.92 119.211 149.64C119.984 149.827 120.491 149.96 120.731 150.04C120.971 150.093 121.438 150.24 122.131 150.48C122.851 150.693 123.344 150.88 123.611 151.04C123.904 151.2 124.304 151.453 124.811 151.8C125.318 152.12 125.678 152.453 125.891 152.8C126.104 153.12 126.304 153.547 126.491 154.08C126.678 154.587 126.771 155.133 126.771 155.72C126.771 157.427 126.091 158.813 124.731 159.88C123.424 160.947 121.691 161.48 119.531 161.48C117.664 161.48 116.051 161.067 114.691 160.24C113.331 159.387 112.371 158.267 111.811 156.88L114.051 155.56C114.424 156.6 115.091 157.427 116.051 158.04C117.038 158.627 118.198 158.92 119.531 158.92C120.891 158.92 121.998 158.653 122.851 158.12C123.704 157.587 124.131 156.787 124.131 155.72C124.131 154.173 122.758 153.04 120.011 152.32C119.238 152.133 118.731 152.013 118.491 151.96C118.251 151.88 117.771 151.733 117.051 151.52C116.358 151.28 115.864 151.08 115.571 150.92C115.304 150.76 114.918 150.52 114.411 150.2C113.904 149.853 113.544 149.52 113.331 149.2C113.118 148.853 112.918 148.427 112.731 147.92C112.544 147.387 112.451 146.827 112.451 146.24C112.451 144.613 113.091 143.253 114.371 142.16C115.704 141.067 117.344 140.52 119.291 140.52C120.891 140.52 122.304 140.88 123.531 141.6C124.784 142.32 125.704 143.32 126.291 144.6L124.091 145.88C123.344 144.013 121.744 143.08 119.291 143.08C118.091 143.08 117.091 143.36 116.291 143.92C115.491 144.48 115.091 145.253 115.091 146.24ZM139.829 140.52C142.816 140.52 145.202 141.573 146.989 143.68C148.829 145.76 149.749 148.227 149.749 151.08C149.749 151.213 149.722 151.627 149.669 152.32H132.109C132.376 154.32 133.229 155.92 134.669 157.12C136.109 158.32 137.909 158.92 140.069 158.92C143.109 158.92 145.256 157.787 146.509 155.52L148.829 156.88C147.949 158.32 146.736 159.453 145.189 160.28C143.669 161.08 141.949 161.48 140.029 161.48C136.882 161.48 134.322 160.493 132.349 158.52C130.376 156.547 129.389 154.04 129.389 151C129.389 147.987 130.362 145.493 132.309 143.52C134.256 141.52 136.762 140.52 139.829 140.52ZM139.829 143.08C137.749 143.08 136.002 143.693 134.589 144.92C133.202 146.147 132.376 147.76 132.109 149.76H147.029C146.736 147.627 145.922 145.987 144.589 144.84C143.202 143.667 141.616 143.08 139.829 143.08ZM171.148 144.92V133H173.788V161H171.148V157.08C169.308 160.013 166.615 161.48 163.068 161.48C160.215 161.48 157.775 160.467 155.748 158.44C153.748 156.413 152.748 153.933 152.748 151C152.748 148.067 153.748 145.587 155.748 143.56C157.775 141.533 160.215 140.52 163.068 140.52C166.615 140.52 169.308 141.987 171.148 144.92ZM157.668 156.64C159.188 158.16 161.055 158.92 163.268 158.92C165.482 158.92 167.348 158.16 168.868 156.64C170.388 155.067 171.148 153.187 171.148 151C171.148 148.787 170.388 146.92 168.868 145.4C167.348 143.853 165.482 143.08 163.268 143.08C161.055 143.08 159.188 143.853 157.668 145.4C156.148 146.92 155.388 148.787 155.388 151C155.388 153.187 156.148 155.067 157.668 156.64ZM196.698 161.48C194.698 161.48 192.938 161.067 191.418 160.24C189.898 159.413 188.818 158.227 188.178 156.68L190.538 155.28C191.418 157.6 193.471 158.76 196.698 158.76C198.698 158.76 200.258 158.28 201.378 157.32C202.525 156.36 203.098 154.947 203.098 153.08V133H205.898V153.08C205.898 155.8 205.018 157.88 203.258 159.32C201.525 160.76 199.338 161.48 196.698 161.48ZM220.688 161.48C218.128 161.48 215.928 160.88 214.088 159.68C212.274 158.453 211.008 156.773 210.288 154.64L212.688 153.24C213.194 155 214.128 156.36 215.488 157.32C216.874 158.28 218.621 158.76 220.728 158.76C222.781 158.76 224.394 158.307 225.568 157.4C226.741 156.493 227.328 155.267 227.328 153.72C227.328 152.253 226.794 151.147 225.728 150.4C224.688 149.653 222.928 148.88 220.447 148.08C217.488 147.093 215.568 146.32 214.688 145.76C212.554 144.48 211.488 142.627 211.488 140.2C211.488 137.827 212.314 135.96 213.967 134.6C215.594 133.213 217.634 132.52 220.088 132.52C222.194 132.52 224.061 133.08 225.688 134.2C227.314 135.293 228.528 136.747 229.328 138.56L226.968 139.88C225.688 136.787 223.394 135.24 220.088 135.24C218.328 135.24 216.914 135.68 215.848 136.56C214.808 137.413 214.288 138.587 214.288 140.08C214.288 141.493 214.768 142.533 215.728 143.2C216.714 143.893 218.301 144.6 220.488 145.32L222.648 146.08C223.101 146.213 223.741 146.453 224.568 146.8C225.474 147.147 226.101 147.44 226.448 147.68C227.861 148.533 228.754 149.32 229.128 150.04C229.794 151.107 230.128 152.307 230.128 153.64C230.128 156.013 229.261 157.92 227.528 159.36C225.794 160.773 223.514 161.48 220.688 161.48ZM234.953 157.6H238.153L235.753 166.6H233.353L234.953 157.6ZM271.763 145.28V133H274.563V161H271.763V147.92H256.563V161H253.763V133H256.563V145.28H271.763ZM278.55 133H298.55V135.64H289.95V161H287.15V135.64H278.55V133ZM324.672 133H328.152V161H325.352V137.24L315.552 153.64H315.152L305.352 137.24V161H302.552V133H306.032L315.352 148.6L324.672 133ZM337.344 133V158.36H350.144V161H334.544V133H337.344ZM380.953 144.92V141H383.593V161H380.953V157.08C379.113 160.013 376.42 161.48 372.873 161.48C370.02 161.48 367.58 160.467 365.553 158.44C363.553 156.413 362.553 153.933 362.553 151C362.553 148.067 363.553 145.587 365.553 143.56C367.58 141.533 370.02 140.52 372.873 140.52C376.42 140.52 379.113 141.987 380.953 144.92ZM367.473 156.64C368.993 158.16 370.86 158.92 373.073 158.92C375.286 158.92 377.153 158.16 378.673 156.64C380.193 155.067 380.953 153.187 380.953 151C380.953 148.787 380.193 146.92 378.673 145.4C377.153 143.853 375.286 143.08 373.073 143.08C370.86 143.08 368.993 143.853 367.473 145.4C365.953 146.92 365.193 148.787 365.193 151C365.193 153.187 365.953 155.067 367.473 156.64ZM398.543 140.52C400.943 140.52 402.849 141.267 404.263 142.76C405.676 144.227 406.383 146.213 406.383 148.72V161H403.743V148.72C403.743 146.933 403.263 145.547 402.303 144.56C401.369 143.573 400.036 143.08 398.303 143.08C396.303 143.08 394.716 143.707 393.543 144.96C392.396 146.213 391.823 148.067 391.823 150.52V161H389.183V141H391.823V144.12C393.316 141.72 395.556 140.52 398.543 140.52ZM428.688 144.92V133H431.328V161H428.688V157.08C426.848 160.013 424.154 161.48 420.608 161.48C417.754 161.48 415.314 160.467 413.288 158.44C411.288 156.413 410.288 153.933 410.288 151C410.288 148.067 411.288 145.587 413.288 143.56C415.314 141.533 417.754 140.52 420.608 140.52C424.154 140.52 426.848 141.987 428.688 144.92ZM415.208 156.64C416.728 158.16 418.594 158.92 420.808 158.92C423.021 158.92 424.888 158.16 426.408 156.64C427.928 155.067 428.688 153.187 428.688 151C428.688 148.787 427.928 146.92 426.408 145.4C424.888 143.853 423.021 143.08 420.808 143.08C418.594 143.08 416.728 143.853 415.208 145.4C413.688 146.92 412.928 148.787 412.928 151C412.928 153.187 413.688 155.067 415.208 156.64ZM460.397 161.48C456.131 161.48 452.624 160.08 449.877 157.28C447.104 154.453 445.717 151.027 445.717 147C445.717 142.973 447.104 139.547 449.877 136.72C452.624 133.92 456.131 132.52 460.397 132.52C462.957 132.52 465.317 133.147 467.477 134.4C469.637 135.627 471.317 137.293 472.517 139.4L470.037 140.84C469.157 139.133 467.851 137.773 466.117 136.76C464.384 135.747 462.477 135.24 460.397 135.24C456.877 135.24 454.024 136.373 451.837 138.64C449.624 140.933 448.517 143.72 448.517 147C448.517 150.28 449.624 153.067 451.837 155.36C454.024 157.627 456.877 158.76 460.397 158.76C462.477 158.76 464.384 158.253 466.117 157.24C467.851 156.227 469.157 154.867 470.037 153.16L472.517 154.56C471.371 156.667 469.704 158.347 467.517 159.6C465.331 160.853 462.957 161.48 460.397 161.48ZM485.922 161.48C483.362 161.48 481.162 160.88 479.322 159.68C477.509 158.453 476.242 156.773 475.522 154.64L477.922 153.24C478.429 155 479.362 156.36 480.722 157.32C482.109 158.28 483.855 158.76 485.962 158.76C488.015 158.76 489.629 158.307 490.802 157.4C491.975 156.493 492.562 155.267 492.562 153.72C492.562 152.253 492.029 151.147 490.962 150.4C489.922 149.653 488.162 148.88 485.682 148.08C482.722 147.093 480.802 146.32 479.922 145.76C477.789 144.48 476.722 142.627 476.722 140.2C476.722 137.827 477.549 135.96 479.202 134.6C480.829 133.213 482.869 132.52 485.322 132.52C487.429 132.52 489.295 133.08 490.922 134.2C492.549 135.293 493.762 136.747 494.562 138.56L492.202 139.88C490.922 136.787 488.629 135.24 485.322 135.24C483.562 135.24 482.149 135.68 481.082 136.56C480.042 137.413 479.522 138.587 479.522 140.08C479.522 141.493 480.002 142.533 480.962 143.2C481.949 143.893 483.535 144.6 485.722 145.32L487.882 146.08C488.335 146.213 488.975 146.453 489.802 146.8C490.709 147.147 491.335 147.44 491.682 147.68C493.095 148.533 493.989 149.32 494.362 150.04C495.029 151.107 495.362 152.307 495.362 153.64C495.362 156.013 494.495 157.92 492.762 159.36C491.029 160.773 488.749 161.48 485.922 161.48ZM507.953 161.48C505.393 161.48 503.193 160.88 501.353 159.68C499.54 158.453 498.273 156.773 497.553 154.64L499.953 153.24C500.46 155 501.393 156.36 502.753 157.32C504.14 158.28 505.886 158.76 507.993 158.76C510.046 158.76 511.66 158.307 512.833 157.4C514.006 156.493 514.593 155.267 514.593 153.72C514.593 152.253 514.06 151.147 512.993 150.4C511.953 149.653 510.193 148.88 507.713 148.08C504.753 147.093 502.833 146.32 501.953 145.76C499.82 144.48 498.753 142.627 498.753 140.2C498.753 137.827 499.58 135.96 501.233 134.6C502.86 133.213 504.9 132.52 507.353 132.52C509.46 132.52 511.326 133.08 512.953 134.2C514.58 135.293 515.793 136.747 516.593 138.56L514.233 139.88C512.953 136.787 510.66 135.24 507.353 135.24C505.593 135.24 504.18 135.68 503.113 136.56C502.073 137.413 501.553 138.587 501.553 140.08C501.553 141.493 502.033 142.533 502.993 143.2C503.98 143.893 505.566 144.6 507.753 145.32L509.913 146.08C510.366 146.213 511.006 146.453 511.833 146.8C512.74 147.147 513.366 147.44 513.713 147.68C515.126 148.533 516.02 149.32 516.393 150.04C517.06 151.107 517.393 152.307 517.393 153.64C517.393 156.013 516.526 157.92 514.793 159.36C513.06 160.773 510.78 161.48 507.953 161.48ZM525.019 159.2C525.019 159.813 524.805 160.333 524.379 160.76C523.952 161.187 523.432 161.4 522.819 161.4C522.205 161.4 521.685 161.187 521.259 160.76C520.832 160.333 520.619 159.813 520.619 159.2C520.619 158.587 520.832 158.067 521.259 157.64C521.685 157.213 522.205 157 522.819 157C523.432 157 523.952 157.213 524.379 157.64C524.805 158.067 525.019 158.587 525.019 159.2Z" fill="white"/>
<path d="M88.5 185V204.02H98.1V206H86.4V185H88.5ZM112.615 204.11C111.075 205.61 109.215 206.36 107.035 206.36C104.815 206.36 102.945 205.61 101.425 204.11C99.9053 202.59 99.1453 200.72 99.1453 198.5C99.1453 196.28 99.9053 194.42 101.425 192.92C102.945 191.4 104.815 190.64 107.035 190.64C109.235 190.64 111.095 191.4 112.615 192.92C114.155 194.42 114.925 196.28 114.925 198.5C114.925 200.7 114.155 202.57 112.615 204.11ZM102.835 202.73C103.975 203.87 105.375 204.44 107.035 204.44C108.695 204.44 110.095 203.87 111.235 202.73C112.375 201.55 112.945 200.14 112.945 198.5C112.945 196.84 112.375 195.44 111.235 194.3C110.095 193.14 108.695 192.56 107.035 192.56C105.375 192.56 103.975 193.14 102.835 194.3C101.695 195.44 101.125 196.84 101.125 198.5C101.125 200.14 101.695 201.55 102.835 202.73ZM120.219 191V193.49C121.139 191.67 122.719 190.76 124.959 190.76V192.68C123.519 192.68 122.369 193.1 121.509 193.94C120.649 194.76 120.219 196 120.219 197.66V206H118.239V191H120.219ZM133.694 190.64C135.934 190.64 137.724 191.43 139.064 193.01C140.444 194.57 141.134 196.42 141.134 198.56C141.134 198.66 141.114 198.97 141.074 199.49H127.904C128.104 200.99 128.744 202.19 129.824 203.09C130.904 203.99 132.254 204.44 133.874 204.44C136.154 204.44 137.764 203.59 138.704 201.89L140.444 202.91C139.784 203.99 138.874 204.84 137.714 205.46C136.574 206.06 135.284 206.36 133.844 206.36C131.484 206.36 129.564 205.62 128.084 204.14C126.604 202.66 125.864 200.78 125.864 198.5C125.864 196.24 126.594 194.37 128.054 192.89C129.514 191.39 131.394 190.64 133.694 190.64ZM133.694 192.56C132.134 192.56 130.824 193.02 129.764 193.94C128.724 194.86 128.104 196.07 127.904 197.57H139.094C138.874 195.97 138.264 194.74 137.264 193.88C136.224 193 135.034 192.56 133.694 192.56ZM160.274 190.64C161.974 190.64 163.334 191.18 164.354 192.26C165.374 193.34 165.884 194.8 165.884 196.64V206H163.904V196.64C163.904 195.36 163.574 194.36 162.914 193.64C162.254 192.92 161.364 192.56 160.244 192.56C158.944 192.56 157.924 192.99 157.184 193.85C156.444 194.71 156.074 195.99 156.074 197.69V206H154.094V196.64C154.094 195.34 153.784 194.34 153.164 193.64C152.544 192.92 151.684 192.56 150.584 192.56C149.324 192.56 148.284 193 147.464 193.88C146.664 194.76 146.264 196.03 146.264 197.69V206H144.284V191H146.264V193.19C147.344 191.49 148.874 190.64 150.854 190.64C153.034 190.64 154.554 191.55 155.414 193.37C156.494 191.55 158.114 190.64 160.274 190.64ZM179.643 186.38C179.643 186.78 179.503 187.12 179.223 187.4C178.943 187.68 178.603 187.82 178.203 187.82C177.803 187.82 177.463 187.68 177.183 187.4C176.903 187.12 176.763 186.78 176.763 186.38C176.763 185.98 176.903 185.64 177.183 185.36C177.463 185.08 177.803 184.94 178.203 184.94C178.603 184.94 178.943 185.08 179.223 185.36C179.503 185.64 179.643 185.98 179.643 186.38ZM179.193 206H177.213V191H179.193V206ZM191.435 190.64C193.575 190.64 195.395 191.4 196.895 192.92C198.415 194.44 199.175 196.3 199.175 198.5C199.175 200.7 198.415 202.56 196.895 204.08C195.395 205.6 193.575 206.36 191.435 206.36C188.775 206.36 186.755 205.26 185.375 203.06V212H183.395V191H185.375V193.94C186.755 191.74 188.775 190.64 191.435 190.64ZM187.085 202.73C188.225 203.87 189.625 204.44 191.285 204.44C192.945 204.44 194.345 203.87 195.485 202.73C196.625 201.55 197.195 200.14 197.195 198.5C197.195 196.84 196.625 195.44 195.485 194.3C194.345 193.14 192.945 192.56 191.285 192.56C189.625 192.56 188.225 193.14 187.085 194.3C185.945 195.44 185.375 196.84 185.375 198.5C185.375 200.14 185.945 201.55 187.085 202.73ZM203.734 194.93C203.734 196.09 204.764 196.94 206.824 197.48C207.404 197.62 207.784 197.72 207.964 197.78C208.144 197.82 208.494 197.93 209.014 198.11C209.554 198.27 209.924 198.41 210.124 198.53C210.344 198.65 210.644 198.84 211.024 199.1C211.404 199.34 211.674 199.59 211.834 199.85C211.994 200.09 212.144 200.41 212.284 200.81C212.424 201.19 212.494 201.6 212.494 202.04C212.494 203.32 211.984 204.36 210.964 205.16C209.984 205.96 208.684 206.36 207.064 206.36C205.664 206.36 204.454 206.05 203.434 205.43C202.414 204.79 201.694 203.95 201.274 202.91L202.954 201.92C203.234 202.7 203.734 203.32 204.454 203.78C205.194 204.22 206.064 204.44 207.064 204.44C208.084 204.44 208.914 204.24 209.554 203.84C210.194 203.44 210.514 202.84 210.514 202.04C210.514 200.88 209.484 200.03 207.424 199.49C206.844 199.35 206.464 199.26 206.284 199.22C206.104 199.16 205.744 199.05 205.204 198.89C204.684 198.71 204.314 198.56 204.094 198.44C203.894 198.32 203.604 198.14 203.224 197.9C202.844 197.64 202.574 197.39 202.414 197.15C202.254 196.89 202.104 196.57 201.964 196.19C201.824 195.79 201.754 195.37 201.754 194.93C201.754 193.71 202.234 192.69 203.194 191.87C204.194 191.05 205.424 190.64 206.884 190.64C208.084 190.64 209.144 190.91 210.064 191.45C211.004 191.99 211.694 192.74 212.134 193.7L210.484 194.66C209.924 193.26 208.724 192.56 206.884 192.56C205.984 192.56 205.234 192.77 204.634 193.19C204.034 193.61 203.734 194.19 203.734 194.93ZM226.211 198.86V191H228.191V206H226.211V203.66C225.091 205.46 223.411 206.36 221.171 206.36C219.371 206.36 217.941 205.81 216.881 204.71C215.821 203.59 215.291 202.09 215.291 200.21V191H217.271V200.21C217.271 201.55 217.621 202.59 218.321 203.33C219.041 204.07 220.051 204.44 221.351 204.44C222.851 204.44 224.031 203.97 224.891 203.03C225.771 202.09 226.211 200.7 226.211 198.86ZM248.369 190.64C250.069 190.64 251.429 191.18 252.449 192.26C253.469 193.34 253.979 194.8 253.979 196.64V206H251.999V196.64C251.999 195.36 251.669 194.36 251.009 193.64C250.349 192.92 249.459 192.56 248.339 192.56C247.039 192.56 246.019 192.99 245.279 193.85C244.539 194.71 244.169 195.99 244.169 197.69V206H242.189V196.64C242.189 195.34 241.879 194.34 241.259 193.64C240.639 192.92 239.779 192.56 238.679 192.56C237.419 192.56 236.379 193 235.559 193.88C234.759 194.76 234.359 196.03 234.359 197.69V206H232.379V191H234.359V193.19C235.439 191.49 236.969 190.64 238.949 190.64C241.129 190.64 242.649 191.55 243.509 193.37C244.589 191.55 246.209 190.64 248.369 190.64ZM278.209 193.94V185H280.189V206H278.209V203.06C276.829 205.26 274.809 206.36 272.149 206.36C270.009 206.36 268.179 205.6 266.659 204.08C265.159 202.56 264.409 200.7 264.409 198.5C264.409 196.3 265.159 194.44 266.659 192.92C268.179 191.4 270.009 190.64 272.149 190.64C274.809 190.64 276.829 191.74 278.209 193.94ZM268.099 202.73C269.239 203.87 270.639 204.44 272.299 204.44C273.959 204.44 275.359 203.87 276.499 202.73C277.639 201.55 278.209 200.14 278.209 198.5C278.209 196.84 277.639 195.44 276.499 194.3C275.359 193.14 273.959 192.56 272.299 192.56C270.639 192.56 269.239 193.14 268.099 194.3C266.959 195.44 266.389 196.84 266.389 198.5C266.389 200.14 266.959 201.55 268.099 202.73ZM296.951 204.11C295.411 205.61 293.551 206.36 291.371 206.36C289.151 206.36 287.281 205.61 285.761 204.11C284.241 202.59 283.481 200.72 283.481 198.5C283.481 196.28 284.241 194.42 285.761 192.92C287.281 191.4 289.151 190.64 291.371 190.64C293.571 190.64 295.431 191.4 296.951 192.92C298.491 194.42 299.261 196.28 299.261 198.5C299.261 200.7 298.491 202.57 296.951 204.11ZM287.171 202.73C288.311 203.87 289.711 204.44 291.371 204.44C293.031 204.44 294.431 203.87 295.571 202.73C296.711 201.55 297.281 200.14 297.281 198.5C297.281 196.84 296.711 195.44 295.571 194.3C294.431 193.14 293.031 192.56 291.371 192.56C289.711 192.56 288.311 193.14 287.171 194.3C286.031 195.44 285.461 196.84 285.461 198.5C285.461 200.14 286.031 201.55 287.171 202.73ZM304.555 206H302.575V184.1H304.555V206ZM321.326 204.11C319.786 205.61 317.926 206.36 315.746 206.36C313.526 206.36 311.656 205.61 310.136 204.11C308.616 202.59 307.856 200.72 307.856 198.5C307.856 196.28 308.616 194.42 310.136 192.92C311.656 191.4 313.526 190.64 315.746 190.64C317.946 190.64 319.806 191.4 321.326 192.92C322.866 194.42 323.636 196.28 323.636 198.5C323.636 200.7 322.866 202.57 321.326 204.11ZM311.546 202.73C312.686 203.87 314.086 204.44 315.746 204.44C317.406 204.44 318.806 203.87 319.946 202.73C321.086 201.55 321.656 200.14 321.656 198.5C321.656 196.84 321.086 195.44 319.946 194.3C318.806 193.14 317.406 192.56 315.746 192.56C314.086 192.56 312.686 193.14 311.546 194.3C310.406 195.44 309.836 196.84 309.836 198.5C309.836 200.14 310.406 201.55 311.546 202.73ZM328.93 191V193.49C329.85 191.67 331.43 190.76 333.67 190.76V192.68C332.23 192.68 331.08 193.1 330.22 193.94C329.36 194.76 328.93 196 328.93 197.66V206H326.95V191H328.93ZM345.443 194.93C345.443 196.09 346.473 196.94 348.533 197.48C349.113 197.62 349.493 197.72 349.673 197.78C349.853 197.82 350.203 197.93 350.723 198.11C351.263 198.27 351.633 198.41 351.833 198.53C352.053 198.65 352.353 198.84 352.733 199.1C353.113 199.34 353.383 199.59 353.543 199.85C353.703 200.09 353.853 200.41 353.993 200.81C354.133 201.19 354.203 201.6 354.203 202.04C354.203 203.32 353.693 204.36 352.673 205.16C351.693 205.96 350.393 206.36 348.773 206.36C347.373 206.36 346.163 206.05 345.143 205.43C344.123 204.79 343.403 203.95 342.983 202.91L344.663 201.92C344.943 202.7 345.443 203.32 346.163 203.78C346.903 204.22 347.773 204.44 348.773 204.44C349.793 204.44 350.623 204.24 351.263 203.84C351.903 203.44 352.223 202.84 352.223 202.04C352.223 200.88 351.193 200.03 349.133 199.49C348.553 199.35 348.173 199.26 347.993 199.22C347.813 199.16 347.453 199.05 346.913 198.89C346.393 198.71 346.023 198.56 345.803 198.44C345.603 198.32 345.313 198.14 344.933 197.9C344.553 197.64 344.283 197.39 344.123 197.15C343.963 196.89 343.813 196.57 343.673 196.19C343.533 195.79 343.463 195.37 343.463 194.93C343.463 193.71 343.943 192.69 344.903 191.87C345.903 191.05 347.133 190.64 348.593 190.64C349.793 190.64 350.853 190.91 351.773 191.45C352.713 191.99 353.403 192.74 353.843 193.7L352.193 194.66C351.633 193.26 350.433 192.56 348.593 192.56C347.693 192.56 346.943 192.77 346.343 193.19C345.743 193.61 345.443 194.19 345.443 194.93ZM359.79 186.38C359.79 186.78 359.65 187.12 359.37 187.4C359.09 187.68 358.75 187.82 358.35 187.82C357.95 187.82 357.61 187.68 357.33 187.4C357.05 187.12 356.91 186.78 356.91 186.38C356.91 185.98 357.05 185.64 357.33 185.36C357.61 185.08 357.95 184.94 358.35 184.94C358.75 184.94 359.09 185.08 359.37 185.36C359.65 185.64 359.79 185.98 359.79 186.38ZM359.34 206H357.36V191H359.34V206ZM371.491 191V192.92H367.171V202.01C367.171 202.83 367.331 203.42 367.651 203.78C367.971 204.12 368.451 204.3 369.091 204.32C369.731 204.32 370.531 204.3 371.491 204.26V206C369.351 206.32 367.761 206.17 366.721 205.55C365.701 204.91 365.191 203.73 365.191 202.01V192.92H362.041V191H365.191V187.4L367.171 186.8V191H371.491ZM395.191 193.94V191H397.171V206H395.191V203.06C393.811 205.26 391.791 206.36 389.131 206.36C386.991 206.36 385.161 205.6 383.641 204.08C382.141 202.56 381.391 200.7 381.391 198.5C381.391 196.3 382.141 194.44 383.641 192.92C385.161 191.4 386.991 190.64 389.131 190.64C391.791 190.64 393.811 191.74 395.191 193.94ZM385.081 202.73C386.221 203.87 387.621 204.44 389.281 204.44C390.941 204.44 392.341 203.87 393.481 202.73C394.621 201.55 395.191 200.14 395.191 198.5C395.191 196.84 394.621 195.44 393.481 194.3C392.341 193.14 390.941 192.56 389.281 192.56C387.621 192.56 386.221 193.14 385.081 194.3C383.941 195.44 383.371 196.84 383.371 198.5C383.371 200.14 383.941 201.55 385.081 202.73ZM417.354 190.64C419.054 190.64 420.414 191.18 421.434 192.26C422.454 193.34 422.964 194.8 422.964 196.64V206H420.984V196.64C420.984 195.36 420.654 194.36 419.994 193.64C419.334 192.92 418.444 192.56 417.324 192.56C416.024 192.56 415.004 192.99 414.264 193.85C413.524 194.71 413.154 195.99 413.154 197.69V206H411.174V196.64C411.174 195.34 410.864 194.34 410.244 193.64C409.624 192.92 408.764 192.56 407.664 192.56C406.404 192.56 405.364 193 404.544 193.88C403.744 194.76 403.344 196.03 403.344 197.69V206H401.364V191H403.344V193.19C404.424 191.49 405.954 190.64 407.934 190.64C410.114 190.64 411.634 191.55 412.494 193.37C413.574 191.55 415.194 190.64 417.354 190.64ZM433.723 190.64C435.963 190.64 437.753 191.43 439.093 193.01C440.473 194.57 441.163 196.42 441.163 198.56C441.163 198.66 441.143 198.97 441.103 199.49H427.933C428.133 200.99 428.773 202.19 429.853 203.09C430.933 203.99 432.283 204.44 433.903 204.44C436.183 204.44 437.793 203.59 438.733 201.89L440.473 202.91C439.813 203.99 438.903 204.84 437.743 205.46C436.603 206.06 435.313 206.36 433.873 206.36C431.513 206.36 429.593 205.62 428.113 204.14C426.633 202.66 425.893 200.78 425.893 198.5C425.893 196.24 426.623 194.37 428.083 192.89C429.543 191.39 431.423 190.64 433.723 190.64ZM433.723 192.56C432.163 192.56 430.853 193.02 429.793 193.94C428.753 194.86 428.133 196.07 427.933 197.57H439.123C438.903 195.97 438.293 194.74 437.293 193.88C436.253 193 435.063 192.56 433.723 192.56ZM451.823 191V192.92H447.503V202.01C447.503 202.83 447.663 203.42 447.983 203.78C448.303 204.12 448.783 204.3 449.423 204.32C450.063 204.32 450.863 204.3 451.823 204.26V206C449.683 206.32 448.093 206.17 447.053 205.55C446.033 204.91 445.523 203.73 445.523 202.01V192.92H442.373V191H445.523V187.4L447.503 186.8V191H451.823ZM469.613 206.36C467.353 206.36 465.473 205.61 463.973 204.11C462.473 202.57 461.723 200.7 461.723 198.5C461.723 196.28 462.473 194.42 463.973 192.92C465.473 191.4 467.353 190.64 469.613 190.64C471.093 190.64 472.423 191 473.603 191.72C474.783 192.42 475.643 193.37 476.183 194.57L474.563 195.5C474.163 194.6 473.513 193.89 472.613 193.37C471.733 192.83 470.733 192.56 469.613 192.56C467.953 192.56 466.553 193.14 465.413 194.3C464.273 195.44 463.703 196.84 463.703 198.5C463.703 200.14 464.273 201.55 465.413 202.73C466.553 203.87 467.953 204.44 469.613 204.44C470.713 204.44 471.703 204.18 472.583 203.66C473.483 203.14 474.183 202.42 474.683 201.5L476.333 202.46C475.713 203.66 474.803 204.61 473.603 205.31C472.403 206.01 471.073 206.36 469.613 206.36ZM491.6 204.11C490.06 205.61 488.2 206.36 486.02 206.36C483.8 206.36 481.93 205.61 480.41 204.11C478.89 202.59 478.13 200.72 478.13 198.5C478.13 196.28 478.89 194.42 480.41 192.92C481.93 191.4 483.8 190.64 486.02 190.64C488.22 190.64 490.08 191.4 491.6 192.92C493.14 194.42 493.91 196.28 493.91 198.5C493.91 200.7 493.14 202.57 491.6 204.11ZM481.82 202.73C482.96 203.87 484.36 204.44 486.02 204.44C487.68 204.44 489.08 203.87 490.22 202.73C491.36 201.55 491.93 200.14 491.93 198.5C491.93 196.84 491.36 195.44 490.22 194.3C489.08 193.14 487.68 192.56 486.02 192.56C484.36 192.56 482.96 193.14 481.82 194.3C480.68 195.44 480.11 196.84 480.11 198.5C480.11 200.14 480.68 201.55 481.82 202.73ZM504.243 190.64C506.043 190.64 507.473 191.2 508.533 192.32C509.593 193.42 510.123 194.91 510.123 196.79V206H508.143V196.79C508.143 195.45 507.783 194.41 507.063 193.67C506.363 192.93 505.363 192.56 504.063 192.56C502.563 192.56 501.373 193.03 500.493 193.97C499.633 194.91 499.203 196.3 499.203 198.14V206H497.223V191H499.203V193.34C500.323 191.54 502.003 190.64 504.243 190.64ZM515.512 194.93C515.512 196.09 516.542 196.94 518.602 197.48C519.182 197.62 519.562 197.72 519.742 197.78C519.922 197.82 520.272 197.93 520.792 198.11C521.332 198.27 521.702 198.41 521.902 198.53C522.122 198.65 522.422 198.84 522.802 199.1C523.182 199.34 523.452 199.59 523.612 199.85C523.772 200.09 523.922 200.41 524.062 200.81C524.202 201.19 524.272 201.6 524.272 202.04C524.272 203.32 523.762 204.36 522.742 205.16C521.762 205.96 520.462 206.36 518.842 206.36C517.442 206.36 516.232 206.05 515.212 205.43C514.192 204.79 513.472 203.95 513.052 202.91L514.732 201.92C515.012 202.7 515.512 203.32 516.232 203.78C516.972 204.22 517.842 204.44 518.842 204.44C519.862 204.44 520.692 204.24 521.332 203.84C521.972 203.44 522.292 202.84 522.292 202.04C522.292 200.88 521.262 200.03 519.202 199.49C518.622 199.35 518.242 199.26 518.062 199.22C517.882 199.16 517.522 199.05 516.982 198.89C516.462 198.71 516.092 198.56 515.872 198.44C515.672 198.32 515.382 198.14 515.002 197.9C514.622 197.64 514.352 197.39 514.192 197.15C514.032 196.89 513.882 196.57 513.742 196.19C513.602 195.79 513.532 195.37 513.532 194.93C513.532 193.71 514.012 192.69 514.972 191.87C515.972 191.05 517.202 190.64 518.662 190.64C519.862 190.64 520.922 190.91 521.842 191.45C522.782 191.99 523.472 192.74 523.912 193.7L522.262 194.66C521.702 193.26 520.502 192.56 518.662 192.56C517.762 192.56 517.012 192.77 516.412 193.19C515.812 193.61 515.512 194.19 515.512 194.93ZM534.065 190.64C536.305 190.64 538.095 191.43 539.435 193.01C540.815 194.57 541.505 196.42 541.505 198.56C541.505 198.66 541.485 198.97 541.445 199.49H528.275C528.475 200.99 529.115 202.19 530.195 203.09C531.275 203.99 532.625 204.44 534.245 204.44C536.525 204.44 538.135 203.59 539.075 201.89L540.815 202.91C540.155 203.99 539.245 204.84 538.085 205.46C536.945 206.06 535.655 206.36 534.215 206.36C531.855 206.36 529.935 205.62 528.455 204.14C526.975 202.66 526.235 200.78 526.235 198.5C526.235 196.24 526.965 194.37 528.425 192.89C529.885 191.39 531.765 190.64 534.065 190.64ZM534.065 192.56C532.505 192.56 531.195 193.02 530.135 193.94C529.095 194.86 528.475 196.07 528.275 197.57H539.465C539.245 195.97 538.635 194.74 537.635 193.88C536.595 193 535.405 192.56 534.065 192.56ZM551.645 206.36C549.385 206.36 547.505 205.61 546.005 204.11C544.505 202.57 543.755 200.7 543.755 198.5C543.755 196.28 544.505 194.42 546.005 192.92C547.505 191.4 549.385 190.64 551.645 190.64C553.125 190.64 554.455 191 555.635 191.72C556.815 192.42 557.675 193.37 558.215 194.57L556.595 195.5C556.195 194.6 555.545 193.89 554.645 193.37C553.765 192.83 552.765 192.56 551.645 192.56C549.985 192.56 548.585 193.14 547.445 194.3C546.305 195.44 545.735 196.84 545.735 198.5C545.735 200.14 546.305 201.55 547.445 202.73C548.585 203.87 549.985 204.44 551.645 204.44C552.745 204.44 553.735 204.18 554.615 203.66C555.515 203.14 556.215 202.42 556.715 201.5L558.365 202.46C557.745 203.66 556.835 204.61 555.635 205.31C554.435 206.01 553.105 206.36 551.645 206.36ZM569.157 191V192.92H564.837V202.01C564.837 202.83 564.997 203.42 565.317 203.78C565.637 204.12 566.117 204.3 566.757 204.32C567.397 204.32 568.197 204.3 569.157 204.26V206C567.017 206.32 565.427 206.17 564.387 205.55C563.367 204.91 562.857 203.73 562.857 202.01V192.92H559.707V191H562.857V187.4L564.837 186.8V191H569.157ZM578.479 190.64C580.719 190.64 582.509 191.43 583.849 193.01C585.229 194.57 585.919 196.42 585.919 198.56C585.919 198.66 585.899 198.97 585.859 199.49H572.689C572.889 200.99 573.529 202.19 574.609 203.09C575.689 203.99 577.039 204.44 578.659 204.44C580.939 204.44 582.549 203.59 583.489 201.89L585.229 202.91C584.569 203.99 583.659 204.84 582.499 205.46C581.359 206.06 580.069 206.36 578.629 206.36C576.269 206.36 574.349 205.62 572.869 204.14C571.389 202.66 570.649 200.78 570.649 198.5C570.649 196.24 571.379 194.37 572.839 192.89C574.299 191.39 576.179 190.64 578.479 190.64ZM578.479 192.56C576.919 192.56 575.609 193.02 574.549 193.94C573.509 194.86 572.889 196.07 572.689 197.57H583.879C583.659 195.97 583.049 194.74 582.049 193.88C581.009 193 579.819 192.56 578.479 192.56ZM596.579 191V192.92H592.259V202.01C592.259 202.83 592.419 203.42 592.739 203.78C593.059 204.12 593.539 204.3 594.179 204.32C594.819 204.32 595.619 204.3 596.579 204.26V206C594.439 206.32 592.849 206.17 591.809 205.55C590.789 204.91 590.279 203.73 590.279 202.01V192.92H587.129V191H590.279V187.4L592.259 186.8V191H596.579ZM610.439 198.86V191H612.419V206H610.439V203.66C609.319 205.46 607.639 206.36 605.399 206.36C603.599 206.36 602.169 205.81 601.109 204.71C600.049 203.59 599.519 202.09 599.519 200.21V191H601.499V200.21C601.499 201.55 601.849 202.59 602.549 203.33C603.269 204.07 604.279 204.44 605.579 204.44C607.079 204.44 608.259 203.97 609.119 203.03C609.999 202.09 610.439 200.7 610.439 198.86ZM618.588 191V193.49C619.508 191.67 621.088 190.76 623.328 190.76V192.68C621.888 192.68 620.738 193.1 619.878 193.94C619.018 194.76 618.588 196 618.588 197.66V206H616.608V191H618.588ZM624.832 203.45H627.232L625.432 210.2H623.632L624.832 203.45ZM99 229.94V227H100.98V242H99V239.06C97.62 241.26 95.6 242.36 92.94 242.36C90.8 242.36 88.97 241.6 87.45 240.08C85.95 238.56 85.2 236.7 85.2 234.5C85.2 232.3 85.95 230.44 87.45 228.92C88.97 227.4 90.8 226.64 92.94 226.64C95.6 226.64 97.62 227.74 99 229.94ZM88.89 238.73C90.03 239.87 91.43 240.44 93.09 240.44C94.75 240.44 96.15 239.87 97.29 238.73C98.43 237.55 99 236.14 99 234.5C99 232.84 98.43 231.44 97.29 230.3C96.15 229.14 94.75 228.56 93.09 228.56C91.43 228.56 90.03 229.14 88.89 230.3C87.75 231.44 87.18 232.84 87.18 234.5C87.18 236.14 87.75 237.55 88.89 238.73ZM118.072 229.94V221H120.052V242H118.072V239.06C116.692 241.26 114.672 242.36 112.012 242.36C109.872 242.36 108.042 241.6 106.522 240.08C105.022 238.56 104.272 236.7 104.272 234.5C104.272 232.3 105.022 230.44 106.522 228.92C108.042 227.4 109.872 226.64 112.012 226.64C114.672 226.64 116.692 227.74 118.072 229.94ZM107.962 238.73C109.102 239.87 110.502 240.44 112.162 240.44C113.822 240.44 115.222 239.87 116.362 238.73C117.502 237.55 118.072 236.14 118.072 234.5C118.072 232.84 117.502 231.44 116.362 230.3C115.222 229.14 113.822 228.56 112.162 228.56C110.502 228.56 109.102 229.14 107.962 230.3C106.822 231.44 106.252 232.84 106.252 234.5C106.252 236.14 106.822 237.55 107.962 238.73ZM126.675 222.38C126.675 222.78 126.535 223.12 126.255 223.4C125.975 223.68 125.635 223.82 125.235 223.82C124.835 223.82 124.495 223.68 124.215 223.4C123.935 223.12 123.795 222.78 123.795 222.38C123.795 221.98 123.935 221.64 124.215 221.36C124.495 221.08 124.835 220.94 125.235 220.94C125.635 220.94 125.975 221.08 126.255 221.36C126.535 221.64 126.675 221.98 126.675 222.38ZM126.225 242H124.245V227H126.225V242ZM138.466 226.64C140.606 226.64 142.426 227.4 143.926 228.92C145.446 230.44 146.206 232.3 146.206 234.5C146.206 236.7 145.446 238.56 143.926 240.08C142.426 241.6 140.606 242.36 138.466 242.36C135.806 242.36 133.786 241.26 132.406 239.06V248H130.426V227H132.406V229.94C133.786 227.74 135.806 226.64 138.466 226.64ZM134.116 238.73C135.256 239.87 136.656 240.44 138.316 240.44C139.976 240.44 141.376 239.87 142.516 238.73C143.656 237.55 144.226 236.14 144.226 234.5C144.226 232.84 143.656 231.44 142.516 230.3C141.376 229.14 139.976 228.56 138.316 228.56C136.656 228.56 135.256 229.14 134.116 230.3C132.976 231.44 132.406 232.84 132.406 234.5C132.406 236.14 132.976 237.55 134.116 238.73ZM151.928 222.38C151.928 222.78 151.788 223.12 151.508 223.4C151.228 223.68 150.888 223.82 150.488 223.82C150.088 223.82 149.748 223.68 149.468 223.4C149.188 223.12 149.048 222.78 149.048 222.38C149.048 221.98 149.188 221.64 149.468 221.36C149.748 221.08 150.088 220.94 150.488 220.94C150.888 220.94 151.228 221.08 151.508 221.36C151.788 221.64 151.928 221.98 151.928 222.38ZM151.478 242H149.498V227H151.478V242ZM157.24 230.93C157.24 232.09 158.27 232.94 160.33 233.48C160.91 233.62 161.29 233.72 161.47 233.78C161.65 233.82 162 233.93 162.52 234.11C163.06 234.27 163.43 234.41 163.63 234.53C163.85 234.65 164.15 234.84 164.53 235.1C164.91 235.34 165.18 235.59 165.34 235.85C165.5 236.09 165.65 236.41 165.79 236.81C165.93 237.19 166 237.6 166 238.04C166 239.32 165.49 240.36 164.47 241.16C163.49 241.96 162.19 242.36 160.57 242.36C159.17 242.36 157.96 242.05 156.94 241.43C155.92 240.79 155.2 239.95 154.78 238.91L156.46 237.92C156.74 238.7 157.24 239.32 157.96 239.78C158.7 240.22 159.57 240.44 160.57 240.44C161.59 240.44 162.42 240.24 163.06 239.84C163.7 239.44 164.02 238.84 164.02 238.04C164.02 236.88 162.99 236.03 160.93 235.49C160.35 235.35 159.97 235.26 159.79 235.22C159.61 235.16 159.25 235.05 158.71 234.89C158.19 234.71 157.82 234.56 157.6 234.44C157.4 234.32 157.11 234.14 156.73 233.9C156.35 233.64 156.08 233.39 155.92 233.15C155.76 232.89 155.61 232.57 155.47 232.19C155.33 231.79 155.26 231.37 155.26 230.93C155.26 229.71 155.74 228.69 156.7 227.87C157.7 227.05 158.93 226.64 160.39 226.64C161.59 226.64 162.65 226.91 163.57 227.45C164.51 227.99 165.2 228.74 165.64 229.7L163.99 230.66C163.43 229.26 162.23 228.56 160.39 228.56C159.49 228.56 158.74 228.77 158.14 229.19C157.54 229.61 157.24 230.19 157.24 230.93ZM171.587 222.38C171.587 222.78 171.447 223.12 171.167 223.4C170.887 223.68 170.547 223.82 170.147 223.82C169.747 223.82 169.407 223.68 169.127 223.4C168.847 223.12 168.707 222.78 168.707 222.38C168.707 221.98 168.847 221.64 169.127 221.36C169.407 221.08 169.747 220.94 170.147 220.94C170.547 220.94 170.887 221.08 171.167 221.36C171.447 221.64 171.587 221.98 171.587 222.38ZM171.137 242H169.157V227H171.137V242ZM182.328 242.36C180.068 242.36 178.188 241.61 176.688 240.11C175.188 238.57 174.438 236.7 174.438 234.5C174.438 232.28 175.188 230.42 176.688 228.92C178.188 227.4 180.068 226.64 182.328 226.64C183.808 226.64 185.138 227 186.318 227.72C187.498 228.42 188.358 229.37 188.898 230.57L187.278 231.5C186.878 230.6 186.228 229.89 185.328 229.37C184.448 228.83 183.448 228.56 182.328 228.56C180.668 228.56 179.268 229.14 178.128 230.3C176.988 231.44 176.418 232.84 176.418 234.5C176.418 236.14 176.988 237.55 178.128 238.73C179.268 239.87 180.668 240.44 182.328 240.44C183.428 240.44 184.418 240.18 185.298 239.66C186.198 239.14 186.898 238.42 187.398 237.5L189.048 238.46C188.428 239.66 187.518 240.61 186.318 241.31C185.118 242.01 183.788 242.36 182.328 242.36ZM194.321 222.38C194.321 222.78 194.181 223.12 193.901 223.4C193.621 223.68 193.281 223.82 192.881 223.82C192.481 223.82 192.141 223.68 191.861 223.4C191.581 223.12 191.441 222.78 191.441 222.38C191.441 221.98 191.581 221.64 191.861 221.36C192.141 221.08 192.481 220.94 192.881 220.94C193.281 220.94 193.621 221.08 193.901 221.36C194.181 221.64 194.321 221.98 194.321 222.38ZM193.871 242H191.891V227H193.871V242ZM205.093 226.64C206.893 226.64 208.323 227.2 209.383 228.32C210.443 229.42 210.973 230.91 210.973 232.79V242H208.993V232.79C208.993 231.45 208.633 230.41 207.913 229.67C207.213 228.93 206.213 228.56 204.913 228.56C203.413 228.56 202.223 229.03 201.343 229.97C200.483 230.91 200.053 232.3 200.053 234.14V242H198.073V227H200.053V229.34C201.173 227.54 202.853 226.64 205.093 226.64ZM227.701 229.94V227H229.681V241.4C229.681 243.56 228.941 245.26 227.461 246.5C225.981 247.74 224.211 248.36 222.151 248.36C218.651 248.36 216.281 247.14 215.041 244.7L216.781 243.71C217.681 245.53 219.471 246.44 222.151 246.44C223.871 246.44 225.221 245.99 226.201 245.09C227.201 244.19 227.701 242.96 227.701 241.4V239.06C226.321 241.26 224.301 242.36 221.641 242.36C219.501 242.36 217.671 241.6 216.151 240.08C214.651 238.56 213.901 236.7 213.901 234.5C213.901 232.3 214.651 230.44 216.151 228.92C217.671 227.4 219.501 226.64 221.641 226.64C224.301 226.64 226.321 227.74 227.701 229.94ZM217.591 238.73C218.731 239.87 220.131 240.44 221.791 240.44C223.451 240.44 224.851 239.87 225.991 238.73C227.131 237.55 227.701 236.14 227.701 234.5C227.701 232.84 227.131 231.44 225.991 230.3C224.851 229.14 223.451 228.56 221.791 228.56C220.131 228.56 218.731 229.14 217.591 230.3C216.451 231.44 215.881 232.84 215.881 234.5C215.881 236.14 216.451 237.55 217.591 238.73ZM248.303 226.64C250.543 226.64 252.333 227.43 253.673 229.01C255.053 230.57 255.743 232.42 255.743 234.56C255.743 234.66 255.723 234.97 255.683 235.49H242.513C242.713 236.99 243.353 238.19 244.433 239.09C245.513 239.99 246.863 240.44 248.483 240.44C250.763 240.44 252.373 239.59 253.313 237.89L255.053 238.91C254.393 239.99 253.483 240.84 252.323 241.46C251.183 242.06 249.893 242.36 248.453 242.36C246.093 242.36 244.173 241.62 242.693 240.14C241.213 238.66 240.473 236.78 240.473 234.5C240.473 232.24 241.203 230.37 242.663 228.89C244.123 227.39 246.003 226.64 248.303 226.64ZM248.303 228.56C246.743 228.56 245.433 229.02 244.373 229.94C243.333 230.86 242.713 232.07 242.513 233.57H253.703C253.483 231.97 252.873 230.74 251.873 229.88C250.833 229 249.643 228.56 248.303 228.56ZM260.873 242H258.893V220.1H260.873V242ZM267.505 222.38C267.505 222.78 267.365 223.12 267.085 223.4C266.805 223.68 266.465 223.82 266.065 223.82C265.665 223.82 265.325 223.68 265.045 223.4C264.765 223.12 264.625 222.78 264.625 222.38C264.625 221.98 264.765 221.64 265.045 221.36C265.325 221.08 265.665 220.94 266.065 220.94C266.465 220.94 266.805 221.08 267.085 221.36C267.365 221.64 267.505 221.98 267.505 222.38ZM267.055 242H265.075V227H267.055V242ZM279.206 227V228.92H274.886V238.01C274.886 238.83 275.046 239.42 275.366 239.78C275.686 240.12 276.166 240.3 276.806 240.32C277.446 240.32 278.246 240.3 279.206 240.26V242C277.066 242.32 275.476 242.17 274.436 241.55C273.416 240.91 272.906 239.73 272.906 238.01V228.92H269.756V227H272.906V223.4L274.886 222.8V227H279.206ZM285.506 240.65C285.506 241.11 285.346 241.5 285.026 241.82C284.706 242.14 284.316 242.3 283.856 242.3C283.396 242.3 283.006 242.14 282.686 241.82C282.366 241.5 282.206 241.11 282.206 240.65C282.206 240.19 282.366 239.8 282.686 239.48C283.006 239.16 283.396 239 283.856 239C284.316 239 284.706 239.16 285.026 239.48C285.346 239.8 285.506 240.19 285.506 240.65ZM299.32 221V240.02H308.92V242H297.22V221H299.32ZM323.766 229.94V227H325.746V242H323.766V239.06C322.386 241.26 320.366 242.36 317.706 242.36C315.566 242.36 313.736 241.6 312.216 240.08C310.716 238.56 309.966 236.7 309.966 234.5C309.966 232.3 310.716 230.44 312.216 228.92C313.736 227.4 315.566 226.64 317.706 226.64C320.366 226.64 322.386 227.74 323.766 229.94ZM313.656 238.73C314.796 239.87 316.196 240.44 317.856 240.44C319.516 240.44 320.916 239.87 322.056 238.73C323.196 237.55 323.766 236.14 323.766 234.5C323.766 232.84 323.196 231.44 322.056 230.3C320.916 229.14 319.516 228.56 317.856 228.56C316.196 228.56 314.796 229.14 313.656 230.3C312.516 231.44 311.946 232.84 311.946 234.5C311.946 236.14 312.516 237.55 313.656 238.73ZM337.978 226.64C340.118 226.64 341.938 227.4 343.438 228.92C344.958 230.44 345.718 232.3 345.718 234.5C345.718 236.7 344.958 238.56 343.438 240.08C341.938 241.6 340.118 242.36 337.978 242.36C335.318 242.36 333.298 241.26 331.918 239.06V242H329.938V221H331.918V229.94C333.298 227.74 335.318 226.64 337.978 226.64ZM333.628 238.73C334.768 239.87 336.168 240.44 337.828 240.44C339.488 240.44 340.888 239.87 342.028 238.73C343.168 237.55 343.738 236.14 343.738 234.5C343.738 232.84 343.168 231.44 342.028 230.3C340.888 229.14 339.488 228.56 337.828 228.56C336.168 228.56 334.768 229.14 333.628 230.3C332.488 231.44 331.918 232.84 331.918 234.5C331.918 236.14 332.488 237.55 333.628 238.73ZM361.58 240.11C360.04 241.61 358.18 242.36 356 242.36C353.78 242.36 351.91 241.61 350.39 240.11C348.87 238.59 348.11 236.72 348.11 234.5C348.11 232.28 348.87 230.42 350.39 228.92C351.91 227.4 353.78 226.64 356 226.64C358.2 226.64 360.06 227.4 361.58 228.92C363.12 230.42 363.89 232.28 363.89 234.5C363.89 236.7 363.12 238.57 361.58 240.11ZM351.8 238.73C352.94 239.87 354.34 240.44 356 240.44C357.66 240.44 359.06 239.87 360.2 238.73C361.34 237.55 361.91 236.14 361.91 234.5C361.91 232.84 361.34 231.44 360.2 230.3C359.06 229.14 357.66 228.56 356 228.56C354.34 228.56 352.94 229.14 351.8 230.3C350.66 231.44 350.09 232.84 350.09 234.5C350.09 236.14 350.66 237.55 351.8 238.73ZM369.184 227V229.49C370.104 227.67 371.684 226.76 373.924 226.76V228.68C372.484 228.68 371.334 229.1 370.474 229.94C369.614 230.76 369.184 232 369.184 233.66V242H367.204V227H369.184ZM379.067 222.38C379.067 222.78 378.927 223.12 378.647 223.4C378.367 223.68 378.027 223.82 377.627 223.82C377.227 223.82 376.887 223.68 376.607 223.4C376.327 223.12 376.187 222.78 376.187 222.38C376.187 221.98 376.327 221.64 376.607 221.36C376.887 221.08 377.227 220.94 377.627 220.94C378.027 220.94 378.367 221.08 378.647 221.36C378.927 221.64 379.067 221.98 379.067 222.38ZM378.617 242H376.637V227H378.617V242ZM395.389 240.11C393.849 241.61 391.989 242.36 389.809 242.36C387.589 242.36 385.719 241.61 384.199 240.11C382.679 238.59 381.919 236.72 381.919 234.5C381.919 232.28 382.679 230.42 384.199 228.92C385.719 227.4 387.589 226.64 389.809 226.64C392.009 226.64 393.869 227.4 395.389 228.92C396.929 230.42 397.699 232.28 397.699 234.5C397.699 236.7 396.929 238.57 395.389 240.11ZM385.609 238.73C386.749 239.87 388.149 240.44 389.809 240.44C391.469 240.44 392.869 239.87 394.009 238.73C395.149 237.55 395.719 236.14 395.719 234.5C395.719 232.84 395.149 231.44 394.009 230.3C392.869 229.14 391.469 228.56 389.809 228.56C388.149 228.56 386.749 229.14 385.609 230.3C384.469 231.44 383.899 232.84 383.899 234.5C383.899 236.14 384.469 237.55 385.609 238.73ZM402.279 230.93C402.279 232.09 403.309 232.94 405.369 233.48C405.949 233.62 406.329 233.72 406.509 233.78C406.689 233.82 407.039 233.93 407.559 234.11C408.099 234.27 408.469 234.41 408.669 234.53C408.889 234.65 409.189 234.84 409.569 235.1C409.949 235.34 410.219 235.59 410.379 235.85C410.539 236.09 410.689 236.41 410.829 236.81C410.969 237.19 411.039 237.6 411.039 238.04C411.039 239.32 410.529 240.36 409.509 241.16C408.529 241.96 407.229 242.36 405.609 242.36C404.209 242.36 402.999 242.05 401.979 241.43C400.959 240.79 400.239 239.95 399.819 238.91L401.499 237.92C401.779 238.7 402.279 239.32 402.999 239.78C403.739 240.22 404.609 240.44 405.609 240.44C406.629 240.44 407.459 240.24 408.099 239.84C408.739 239.44 409.059 238.84 409.059 238.04C409.059 236.88 408.029 236.03 405.969 235.49C405.389 235.35 405.009 235.26 404.829 235.22C404.649 235.16 404.289 235.05 403.749 234.89C403.229 234.71 402.859 234.56 402.639 234.44C402.439 234.32 402.149 234.14 401.769 233.9C401.389 233.64 401.119 233.39 400.959 233.15C400.799 232.89 400.649 232.57 400.509 232.19C400.369 231.79 400.299 231.37 400.299 230.93C400.299 229.71 400.779 228.69 401.739 227.87C402.739 227.05 403.969 226.64 405.429 226.64C406.629 226.64 407.689 226.91 408.609 227.45C409.549 227.99 410.239 228.74 410.679 229.7L409.029 230.66C408.469 229.26 407.269 228.56 405.429 228.56C404.529 228.56 403.779 228.77 403.179 229.19C402.579 229.61 402.279 230.19 402.279 230.93ZM426.803 229.94V227H428.783V242H426.803V239.06C425.423 241.26 423.403 242.36 420.743 242.36C418.603 242.36 416.773 241.6 415.253 240.08C413.753 238.56 413.003 236.7 413.003 234.5C413.003 232.3 413.753 230.44 415.253 228.92C416.773 227.4 418.603 226.64 420.743 226.64C423.403 226.64 425.423 227.74 426.803 229.94ZM416.693 238.73C417.833 239.87 419.233 240.44 420.893 240.44C422.553 240.44 423.953 239.87 425.093 238.73C426.233 237.55 426.803 236.14 426.803 234.5C426.803 232.84 426.233 231.44 425.093 230.3C423.953 229.14 422.553 228.56 420.893 228.56C419.233 228.56 417.833 229.14 416.693 230.3C415.553 231.44 414.983 232.84 414.983 234.5C414.983 236.14 415.553 237.55 416.693 238.73ZM448.965 226.64C450.665 226.64 452.025 227.18 453.045 228.26C454.065 229.34 454.575 230.8 454.575 232.64V242H452.595V232.64C452.595 231.36 452.265 230.36 451.605 229.64C450.945 228.92 450.055 228.56 448.935 228.56C447.635 228.56 446.615 228.99 445.875 229.85C445.135 230.71 444.765 231.99 444.765 233.69V242H442.785V232.64C442.785 231.34 442.475 230.34 441.855 229.64C441.235 228.92 440.375 228.56 439.275 228.56C438.015 228.56 436.975 229 436.155 229.88C435.355 230.76 434.955 232.03 434.955 233.69V242H432.975V227H434.955V229.19C436.035 227.49 437.565 226.64 439.545 226.64C441.725 226.64 443.245 227.55 444.105 229.37C445.185 227.55 446.805 226.64 448.965 226.64ZM472.835 226.64C475.075 226.64 476.865 227.43 478.205 229.01C479.585 230.57 480.275 232.42 480.275 234.56C480.275 234.66 480.255 234.97 480.215 235.49H467.045C467.245 236.99 467.885 238.19 468.965 239.09C470.045 239.99 471.395 240.44 473.015 240.44C475.295 240.44 476.905 239.59 477.845 237.89L479.585 238.91C478.925 239.99 478.015 240.84 476.855 241.46C475.715 242.06 474.425 242.36 472.985 242.36C470.625 242.36 468.705 241.62 467.225 240.14C465.745 238.66 465.005 236.78 465.005 234.5C465.005 232.24 465.735 230.37 467.195 228.89C468.655 227.39 470.535 226.64 472.835 226.64ZM472.835 228.56C471.275 228.56 469.965 229.02 468.905 229.94C467.865 230.86 467.245 232.07 467.045 233.57H478.235C478.015 231.97 477.405 230.74 476.405 229.88C475.365 229 474.175 228.56 472.835 228.56ZM490.935 227V228.92H486.615V238.01C486.615 238.83 486.775 239.42 487.095 239.78C487.415 240.12 487.895 240.3 488.535 240.32C489.175 240.32 489.975 240.3 490.935 240.26V242C488.795 242.32 487.205 242.17 486.165 241.55C485.145 240.91 484.635 239.73 484.635 238.01V228.92H481.485V227H484.635V223.4L486.615 222.8V227H490.935ZM508.755 226.64C510.555 226.64 511.985 227.2 513.045 228.32C514.105 229.42 514.635 230.91 514.635 232.79V242H512.655V232.79C512.655 231.45 512.295 230.41 511.575 229.67C510.875 228.93 509.875 228.56 508.575 228.56C507.075 228.56 505.885 229.03 505.005 229.97C504.145 230.91 503.715 232.3 503.715 234.14V242H501.735V227H503.715V229.34C504.835 227.54 506.515 226.64 508.755 226.64ZM520.893 222.38C520.893 222.78 520.753 223.12 520.473 223.4C520.193 223.68 519.853 223.82 519.453 223.82C519.053 223.82 518.713 223.68 518.433 223.4C518.153 223.12 518.013 222.78 518.013 222.38C518.013 221.98 518.153 221.64 518.433 221.36C518.713 221.08 519.053 220.94 519.453 220.94C519.853 220.94 520.193 221.08 520.473 221.36C520.753 221.64 520.893 221.98 520.893 222.38ZM520.443 242H518.463V227H520.443V242ZM526.205 230.93C526.205 232.09 527.235 232.94 529.295 233.48C529.875 233.62 530.255 233.72 530.435 233.78C530.615 233.82 530.965 233.93 531.485 234.11C532.025 234.27 532.395 234.41 532.595 234.53C532.815 234.65 533.115 234.84 533.495 235.1C533.875 235.34 534.145 235.59 534.305 235.85C534.465 236.09 534.615 236.41 534.755 236.81C534.895 237.19 534.965 237.6 534.965 238.04C534.965 239.32 534.455 240.36 533.435 241.16C532.455 241.96 531.155 242.36 529.535 242.36C528.135 242.36 526.925 242.05 525.905 241.43C524.885 240.79 524.165 239.95 523.745 238.91L525.425 237.92C525.705 238.7 526.205 239.32 526.925 239.78C527.665 240.22 528.535 240.44 529.535 240.44C530.555 240.44 531.385 240.24 532.025 239.84C532.665 239.44 532.985 238.84 532.985 238.04C532.985 236.88 531.955 236.03 529.895 235.49C529.315 235.35 528.935 235.26 528.755 235.22C528.575 235.16 528.215 235.05 527.675 234.89C527.155 234.71 526.785 234.56 526.565 234.44C526.365 234.32 526.075 234.14 525.695 233.9C525.315 233.64 525.045 233.39 524.885 233.15C524.725 232.89 524.575 232.57 524.435 232.19C524.295 231.79 524.225 231.37 524.225 230.93C524.225 229.71 524.705 228.69 525.665 227.87C526.665 227.05 527.895 226.64 529.355 226.64C530.555 226.64 531.615 226.91 532.535 227.45C533.475 227.99 534.165 228.74 534.605 229.7L532.955 230.66C532.395 229.26 531.195 228.56 529.355 228.56C528.455 228.56 527.705 228.77 527.105 229.19C526.505 229.61 526.205 230.19 526.205 230.93ZM540.551 222.38C540.551 222.78 540.411 223.12 540.131 223.4C539.851 223.68 539.511 223.82 539.111 223.82C538.711 223.82 538.371 223.68 538.091 223.4C537.811 223.12 537.671 222.78 537.671 222.38C537.671 221.98 537.811 221.64 538.091 221.36C538.371 221.08 538.711 220.94 539.111 220.94C539.511 220.94 539.851 221.08 540.131 221.36C540.411 221.64 540.551 221.98 540.551 222.38ZM540.101 242H538.121V227H540.101V242ZM564.373 240.11C562.833 241.61 560.973 242.36 558.793 242.36C556.573 242.36 554.703 241.61 553.183 240.11C551.663 238.59 550.903 236.72 550.903 234.5C550.903 232.28 551.663 230.42 553.183 228.92C554.703 227.4 556.573 226.64 558.793 226.64C560.993 226.64 562.853 227.4 564.373 228.92C565.913 230.42 566.683 232.28 566.683 234.5C566.683 236.7 565.913 238.57 564.373 240.11ZM554.593 238.73C555.733 239.87 557.133 240.44 558.793 240.44C560.453 240.44 561.853 239.87 562.993 238.73C564.133 237.55 564.703 236.14 564.703 234.5C564.703 232.84 564.133 231.44 562.993 230.3C561.853 229.14 560.453 228.56 558.793 228.56C557.133 228.56 555.733 229.14 554.593 230.3C553.453 231.44 552.883 232.84 552.883 234.5C552.883 236.14 553.453 237.55 554.593 238.73ZM582.896 229.94V221H584.876V242H582.896V239.06C581.516 241.26 579.496 242.36 576.836 242.36C574.696 242.36 572.866 241.6 571.346 240.08C569.846 238.56 569.096 236.7 569.096 234.5C569.096 232.3 569.846 230.44 571.346 228.92C572.866 227.4 574.696 226.64 576.836 226.64C579.496 226.64 581.516 227.74 582.896 229.94ZM572.786 238.73C573.926 239.87 575.326 240.44 576.986 240.44C578.646 240.44 580.046 239.87 581.186 238.73C582.326 237.55 582.896 236.14 582.896 234.5C582.896 232.84 582.326 231.44 581.186 230.3C580.046 229.14 578.646 228.56 576.986 228.56C575.326 228.56 573.926 229.14 572.786 230.3C571.646 231.44 571.076 232.84 571.076 234.5C571.076 236.14 571.646 237.55 572.786 238.73ZM591.499 222.38C591.499 222.78 591.359 223.12 591.079 223.4C590.799 223.68 590.459 223.82 590.059 223.82C589.659 223.82 589.319 223.68 589.039 223.4C588.759 223.12 588.619 222.78 588.619 222.38C588.619 221.98 588.759 221.64 589.039 221.36C589.319 221.08 589.659 220.94 590.059 220.94C590.459 220.94 590.799 221.08 591.079 221.36C591.359 221.64 591.499 221.98 591.499 222.38ZM591.049 242H589.069V227H591.049V242ZM607.82 240.11C606.28 241.61 604.42 242.36 602.24 242.36C600.02 242.36 598.15 241.61 596.63 240.11C595.11 238.59 594.35 236.72 594.35 234.5C594.35 232.28 595.11 230.42 596.63 228.92C598.15 227.4 600.02 226.64 602.24 226.64C604.44 226.64 606.3 227.4 607.82 228.92C609.36 230.42 610.13 232.28 610.13 234.5C610.13 236.7 609.36 238.57 607.82 240.11ZM598.04 238.73C599.18 239.87 600.58 240.44 602.24 240.44C603.9 240.44 605.3 239.87 606.44 238.73C607.58 237.55 608.15 236.14 608.15 234.5C608.15 232.84 607.58 231.44 606.44 230.3C605.3 229.14 603.9 228.56 602.24 228.56C600.58 228.56 599.18 229.14 598.04 230.3C596.9 231.44 596.33 232.84 596.33 234.5C596.33 236.14 596.9 237.55 598.04 238.73ZM88.08 263V265.49C89 263.67 90.58 262.76 92.82 262.76V264.68C91.38 264.68 90.23 265.1 89.37 265.94C88.51 266.76 88.08 268 88.08 269.66V278H86.1V263H88.08ZM101.555 262.64C103.795 262.64 105.585 263.43 106.925 265.01C108.305 266.57 108.995 268.42 108.995 270.56C108.995 270.66 108.975 270.97 108.935 271.49H95.7654C95.9654 272.99 96.6054 274.19 97.6854 275.09C98.7654 275.99 100.115 276.44 101.735 276.44C104.015 276.44 105.625 275.59 106.565 273.89L108.305 274.91C107.645 275.99 106.735 276.84 105.575 277.46C104.435 278.06 103.145 278.36 101.705 278.36C99.3454 278.36 97.4254 277.62 95.9454 276.14C94.4654 274.66 93.7254 272.78 93.7254 270.5C93.7254 268.24 94.4554 266.37 95.9154 264.89C97.3754 263.39 99.2554 262.64 101.555 262.64ZM101.555 264.56C99.9954 264.56 98.6854 265.02 97.6254 265.94C96.5854 266.86 95.9654 268.07 95.7654 269.57H106.955C106.735 267.97 106.125 266.74 105.125 265.88C104.085 265 102.895 264.56 101.555 264.56ZM119.135 278.36C116.875 278.36 114.995 277.61 113.495 276.11C111.995 274.57 111.245 272.7 111.245 270.5C111.245 268.28 111.995 266.42 113.495 264.92C114.995 263.4 116.875 262.64 119.135 262.64C120.615 262.64 121.945 263 123.125 263.72C124.305 264.42 125.165 265.37 125.705 266.57L124.085 267.5C123.685 266.6 123.035 265.89 122.135 265.37C121.255 264.83 120.255 264.56 119.135 264.56C117.475 264.56 116.075 265.14 114.935 266.3C113.795 267.44 113.225 268.84 113.225 270.5C113.225 272.14 113.795 273.55 114.935 274.73C116.075 275.87 117.475 276.44 119.135 276.44C120.235 276.44 121.225 276.18 122.105 275.66C123.005 275.14 123.705 274.42 124.205 273.5L125.855 274.46C125.235 275.66 124.325 276.61 123.125 277.31C121.925 278.01 120.595 278.36 119.135 278.36ZM139.258 270.86V263H141.238V278H139.258V275.66C138.138 277.46 136.458 278.36 134.218 278.36C132.418 278.36 130.988 277.81 129.928 276.71C128.868 275.59 128.338 274.09 128.338 272.21V263H130.318V272.21C130.318 273.55 130.668 274.59 131.368 275.33C132.088 276.07 133.098 276.44 134.398 276.44C135.898 276.44 137.078 275.97 137.938 275.03C138.818 274.09 139.258 272.7 139.258 270.86ZM146.986 266.93C146.986 268.09 148.016 268.94 150.076 269.48C150.656 269.62 151.036 269.72 151.216 269.78C151.396 269.82 151.746 269.93 152.266 270.11C152.806 270.27 153.176 270.41 153.376 270.53C153.596 270.65 153.896 270.84 154.276 271.1C154.656 271.34 154.926 271.59 155.086 271.85C155.246 272.09 155.396 272.41 155.536 272.81C155.676 273.19 155.746 273.6 155.746 274.04C155.746 275.32 155.236 276.36 154.216 277.16C153.236 277.96 151.936 278.36 150.316 278.36C148.916 278.36 147.706 278.05 146.686 277.43C145.666 276.79 144.946 275.95 144.526 274.91L146.206 273.92C146.486 274.7 146.986 275.32 147.706 275.78C148.446 276.22 149.316 276.44 150.316 276.44C151.336 276.44 152.166 276.24 152.806 275.84C153.446 275.44 153.766 274.84 153.766 274.04C153.766 272.88 152.736 272.03 150.676 271.49C150.096 271.35 149.716 271.26 149.536 271.22C149.356 271.16 148.996 271.05 148.456 270.89C147.936 270.71 147.566 270.56 147.346 270.44C147.146 270.32 146.856 270.14 146.476 269.9C146.096 269.64 145.826 269.39 145.666 269.15C145.506 268.89 145.356 268.57 145.216 268.19C145.076 267.79 145.006 267.37 145.006 266.93C145.006 265.71 145.486 264.69 146.446 263.87C147.446 263.05 148.676 262.64 150.136 262.64C151.336 262.64 152.396 262.91 153.316 263.45C154.256 263.99 154.946 264.74 155.386 265.7L153.736 266.66C153.176 265.26 151.976 264.56 150.136 264.56C149.236 264.56 148.486 264.77 147.886 265.19C147.286 265.61 146.986 266.19 146.986 266.93ZM171.51 265.94V263H173.49V278H171.51V275.06C170.13 277.26 168.11 278.36 165.45 278.36C163.31 278.36 161.48 277.6 159.96 276.08C158.46 274.56 157.71 272.7 157.71 270.5C157.71 268.3 158.46 266.44 159.96 264.92C161.48 263.4 163.31 262.64 165.45 262.64C168.11 262.64 170.13 263.74 171.51 265.94ZM161.4 274.73C162.54 275.87 163.94 276.44 165.6 276.44C167.26 276.44 168.66 275.87 169.8 274.73C170.94 273.55 171.51 272.14 171.51 270.5C171.51 268.84 170.94 267.44 169.8 266.3C168.66 265.14 167.26 264.56 165.6 264.56C163.94 264.56 162.54 265.14 161.4 266.3C160.26 267.44 159.69 268.84 159.69 270.5C159.69 272.14 160.26 273.55 161.4 274.73ZM184.702 262.64C186.502 262.64 187.932 263.2 188.992 264.32C190.052 265.42 190.582 266.91 190.582 268.79V278H188.602V268.79C188.602 267.45 188.242 266.41 187.522 265.67C186.822 264.93 185.822 264.56 184.522 264.56C183.022 264.56 181.832 265.03 180.952 265.97C180.092 266.91 179.662 268.3 179.662 270.14V278H177.682V263H179.662V265.34C180.782 263.54 182.462 262.64 184.702 262.64ZM207.311 265.94V257H209.291V278H207.311V275.06C205.931 277.26 203.911 278.36 201.251 278.36C199.111 278.36 197.281 277.6 195.761 276.08C194.261 274.56 193.511 272.7 193.511 270.5C193.511 268.3 194.261 266.44 195.761 264.92C197.281 263.4 199.111 262.64 201.251 262.64C203.911 262.64 205.931 263.74 207.311 265.94ZM197.201 274.73C198.341 275.87 199.741 276.44 201.401 276.44C203.061 276.44 204.461 275.87 205.601 274.73C206.741 273.55 207.311 272.14 207.311 270.5C207.311 268.84 206.741 267.44 205.601 266.3C204.461 265.14 203.061 264.56 201.401 264.56C199.741 264.56 198.341 265.14 197.201 266.3C196.061 267.44 195.491 268.84 195.491 270.5C195.491 272.14 196.061 273.55 197.201 274.73ZM226.383 265.94V263H228.363V278H226.383V275.06C225.003 277.26 222.983 278.36 220.323 278.36C218.183 278.36 216.353 277.6 214.833 276.08C213.333 274.56 212.583 272.7 212.583 270.5C212.583 268.3 213.333 266.44 214.833 264.92C216.353 263.4 218.183 262.64 220.323 262.64C222.983 262.64 225.003 263.74 226.383 265.94ZM216.273 274.73C217.413 275.87 218.813 276.44 220.473 276.44C222.133 276.44 223.533 275.87 224.673 274.73C225.813 273.55 226.383 272.14 226.383 270.5C226.383 268.84 225.813 267.44 224.673 266.3C223.533 265.14 222.133 264.56 220.473 264.56C218.813 264.56 217.413 265.14 216.273 266.3C215.133 267.44 214.563 268.84 214.563 270.5C214.563 272.14 215.133 273.55 216.273 274.73ZM239.485 262.64C241.725 262.64 243.515 263.43 244.855 265.01C246.235 266.57 246.925 268.42 246.925 270.56C246.925 270.66 246.905 270.97 246.865 271.49H233.695C233.895 272.99 234.535 274.19 235.615 275.09C236.695 275.99 238.045 276.44 239.665 276.44C241.945 276.44 243.555 275.59 244.495 273.89L246.235 274.91C245.575 275.99 244.665 276.84 243.505 277.46C242.365 278.06 241.075 278.36 239.635 278.36C237.275 278.36 235.355 277.62 233.875 276.14C232.395 274.66 231.655 272.78 231.655 270.5C231.655 268.24 232.385 266.37 233.845 264.89C235.305 263.39 237.185 262.64 239.485 262.64ZM239.485 264.56C237.925 264.56 236.615 265.02 235.555 265.94C234.515 266.86 233.895 268.07 233.695 269.57H244.885C244.665 267.97 244.055 266.74 243.055 265.88C242.015 265 240.825 264.56 239.485 264.56ZM270.475 265.94V257H272.455V278H270.475V275.06C269.095 277.26 267.075 278.36 264.415 278.36C262.275 278.36 260.445 277.6 258.925 276.08C257.425 274.56 256.675 272.7 256.675 270.5C256.675 268.3 257.425 266.44 258.925 264.92C260.445 263.4 262.275 262.64 264.415 262.64C267.075 262.64 269.095 263.74 270.475 265.94ZM260.365 274.73C261.505 275.87 262.905 276.44 264.565 276.44C266.225 276.44 267.625 275.87 268.765 274.73C269.905 273.55 270.475 272.14 270.475 270.5C270.475 268.84 269.905 267.44 268.765 266.3C267.625 265.14 266.225 264.56 264.565 264.56C262.905 264.56 261.505 265.14 260.365 266.3C259.225 267.44 258.655 268.84 258.655 270.5C258.655 272.14 259.225 273.55 260.365 274.73ZM289.217 276.11C287.677 277.61 285.817 278.36 283.637 278.36C281.417 278.36 279.547 277.61 278.027 276.11C276.507 274.59 275.747 272.72 275.747 270.5C275.747 268.28 276.507 266.42 278.027 264.92C279.547 263.4 281.417 262.64 283.637 262.64C285.837 262.64 287.697 263.4 289.217 264.92C290.757 266.42 291.527 268.28 291.527 270.5C291.527 272.7 290.757 274.57 289.217 276.11ZM279.437 274.73C280.577 275.87 281.977 276.44 283.637 276.44C285.297 276.44 286.697 275.87 287.837 274.73C288.977 273.55 289.547 272.14 289.547 270.5C289.547 268.84 288.977 267.44 287.837 266.3C286.697 265.14 285.297 264.56 283.637 264.56C281.977 264.56 280.577 265.14 279.437 266.3C278.297 267.44 277.727 268.84 277.727 270.5C277.727 272.14 278.297 273.55 279.437 274.73ZM296.82 278H294.84V256.1H296.82V278ZM313.592 276.11C312.052 277.61 310.192 278.36 308.012 278.36C305.792 278.36 303.922 277.61 302.402 276.11C300.882 274.59 300.122 272.72 300.122 270.5C300.122 268.28 300.882 266.42 302.402 264.92C303.922 263.4 305.792 262.64 308.012 262.64C310.212 262.64 312.072 263.4 313.592 264.92C315.132 266.42 315.902 268.28 315.902 270.5C315.902 272.7 315.132 274.57 313.592 276.11ZM303.812 274.73C304.952 275.87 306.352 276.44 308.012 276.44C309.672 276.44 311.072 275.87 312.212 274.73C313.352 273.55 313.922 272.14 313.922 270.5C313.922 268.84 313.352 267.44 312.212 266.3C311.072 265.14 309.672 264.56 308.012 264.56C306.352 264.56 304.952 265.14 303.812 266.3C302.672 267.44 302.102 268.84 302.102 270.5C302.102 272.14 302.672 273.55 303.812 274.73ZM321.195 263V265.49C322.115 263.67 323.695 262.76 325.935 262.76V264.68C324.495 264.68 323.345 265.1 322.485 265.94C321.625 266.76 321.195 268 321.195 269.66V278H319.215V263H321.195ZM334.671 262.64C336.911 262.64 338.701 263.43 340.041 265.01C341.421 266.57 342.111 268.42 342.111 270.56C342.111 270.66 342.091 270.97 342.051 271.49H328.881C329.081 272.99 329.721 274.19 330.801 275.09C331.881 275.99 333.231 276.44 334.851 276.44C337.131 276.44 338.741 275.59 339.681 273.89L341.421 274.91C340.761 275.99 339.851 276.84 338.691 277.46C337.551 278.06 336.261 278.36 334.821 278.36C332.461 278.36 330.541 277.62 329.061 276.14C327.581 274.66 326.841 272.78 326.841 270.5C326.841 268.24 327.571 266.37 329.031 264.89C330.491 263.39 332.371 262.64 334.671 262.64ZM334.671 264.56C333.111 264.56 331.801 265.02 330.741 265.94C329.701 266.86 329.081 268.07 328.881 269.57H340.071C339.851 267.97 339.241 266.74 338.241 265.88C337.201 265 336.011 264.56 334.671 264.56ZM361.25 262.64C362.95 262.64 364.31 263.18 365.33 264.26C366.35 265.34 366.86 266.8 366.86 268.64V278H364.88V268.64C364.88 267.36 364.55 266.36 363.89 265.64C363.23 264.92 362.34 264.56 361.22 264.56C359.92 264.56 358.9 264.99 358.16 265.85C357.42 266.71 357.05 267.99 357.05 269.69V278H355.07V268.64C355.07 267.34 354.76 266.34 354.14 265.64C353.52 264.92 352.66 264.56 351.56 264.56C350.3 264.56 349.26 265 348.44 265.88C347.64 266.76 347.24 268.03 347.24 269.69V278H345.26V263H347.24V265.19C348.32 263.49 349.85 262.64 351.83 262.64C354.01 262.64 355.53 263.55 356.39 265.37C357.47 263.55 359.09 262.64 361.25 262.64ZM383.59 265.94V263H385.57V284H383.59V275.06C382.21 277.26 380.19 278.36 377.53 278.36C375.39 278.36 373.56 277.6 372.04 276.08C370.54 274.56 369.79 272.7 369.79 270.5C369.79 268.3 370.54 266.44 372.04 264.92C373.56 263.4 375.39 262.64 377.53 262.64C380.19 262.64 382.21 263.74 383.59 265.94ZM373.48 274.73C374.62 275.87 376.02 276.44 377.68 276.44C379.34 276.44 380.74 275.87 381.88 274.73C383.02 273.55 383.59 272.14 383.59 270.5C383.59 268.84 383.02 267.44 381.88 266.3C380.74 265.14 379.34 264.56 377.68 264.56C376.02 264.56 374.62 265.14 373.48 266.3C372.34 267.44 371.77 268.84 371.77 270.5C371.77 272.14 372.34 273.55 373.48 274.73ZM400.322 270.86V263H402.302V278H400.322V275.66C399.202 277.46 397.522 278.36 395.282 278.36C393.482 278.36 392.052 277.81 390.992 276.71C389.932 275.59 389.402 274.09 389.402 272.21V263H391.382V272.21C391.382 273.55 391.732 274.59 392.432 275.33C393.152 276.07 394.162 276.44 395.462 276.44C396.962 276.44 398.142 275.97 399.002 275.03C399.882 274.09 400.322 272.7 400.322 270.86ZM413.421 262.64C415.661 262.64 417.451 263.43 418.791 265.01C420.171 266.57 420.861 268.42 420.861 270.56C420.861 270.66 420.841 270.97 420.801 271.49H407.631C407.831 272.99 408.471 274.19 409.551 275.09C410.631 275.99 411.981 276.44 413.601 276.44C415.881 276.44 417.491 275.59 418.431 273.89L420.171 274.91C419.511 275.99 418.601 276.84 417.441 277.46C416.301 278.06 415.011 278.36 413.571 278.36C411.211 278.36 409.291 277.62 407.811 276.14C406.331 274.66 405.591 272.78 405.591 270.5C405.591 268.24 406.321 266.37 407.781 264.89C409.241 263.39 411.121 262.64 413.421 262.64ZM413.421 264.56C411.861 264.56 410.551 265.02 409.491 265.94C408.451 266.86 407.831 268.07 407.631 269.57H418.821C418.601 267.97 417.991 266.74 416.991 265.88C415.951 265 414.761 264.56 413.421 264.56ZM433.07 266.93C433.07 268.09 434.1 268.94 436.16 269.48C436.74 269.62 437.12 269.72 437.3 269.78C437.48 269.82 437.83 269.93 438.35 270.11C438.89 270.27 439.26 270.41 439.46 270.53C439.68 270.65 439.98 270.84 440.36 271.1C440.74 271.34 441.01 271.59 441.17 271.85C441.33 272.09 441.48 272.41 441.62 272.81C441.76 273.19 441.83 273.6 441.83 274.04C441.83 275.32 441.32 276.36 440.3 277.16C439.32 277.96 438.02 278.36 436.4 278.36C435 278.36 433.79 278.05 432.77 277.43C431.75 276.79 431.03 275.95 430.61 274.91L432.29 273.92C432.57 274.7 433.07 275.32 433.79 275.78C434.53 276.22 435.4 276.44 436.4 276.44C437.42 276.44 438.25 276.24 438.89 275.84C439.53 275.44 439.85 274.84 439.85 274.04C439.85 272.88 438.82 272.03 436.76 271.49C436.18 271.35 435.8 271.26 435.62 271.22C435.44 271.16 435.08 271.05 434.54 270.89C434.02 270.71 433.65 270.56 433.43 270.44C433.23 270.32 432.94 270.14 432.56 269.9C432.18 269.64 431.91 269.39 431.75 269.15C431.59 268.89 431.44 268.57 431.3 268.19C431.16 267.79 431.09 267.37 431.09 266.93C431.09 265.71 431.57 264.69 432.53 263.87C433.53 263.05 434.76 262.64 436.22 262.64C437.42 262.64 438.48 262.91 439.4 263.45C440.34 263.99 441.03 264.74 441.47 265.7L439.82 266.66C439.26 265.26 438.06 264.56 436.22 264.56C435.32 264.56 434.57 264.77 433.97 265.19C433.37 265.61 433.07 266.19 433.07 266.93ZM447.417 258.38C447.417 258.78 447.277 259.12 446.997 259.4C446.717 259.68 446.377 259.82 445.977 259.82C445.577 259.82 445.237 259.68 444.957 259.4C444.677 259.12 444.537 258.78 444.537 258.38C444.537 257.98 444.677 257.64 444.957 257.36C445.237 257.08 445.577 256.94 445.977 256.94C446.377 256.94 446.717 257.08 446.997 257.36C447.277 257.64 447.417 257.98 447.417 258.38ZM446.967 278H444.987V263H446.967V278ZM467.158 262.64C468.858 262.64 470.218 263.18 471.238 264.26C472.258 265.34 472.768 266.8 472.768 268.64V278H470.788V268.64C470.788 267.36 470.458 266.36 469.798 265.64C469.138 264.92 468.248 264.56 467.128 264.56C465.828 264.56 464.808 264.99 464.068 265.85C463.328 266.71 462.958 267.99 462.958 269.69V278H460.978V268.64C460.978 267.34 460.668 266.34 460.048 265.64C459.428 264.92 458.568 264.56 457.468 264.56C456.208 264.56 455.168 265 454.348 265.88C453.548 266.76 453.148 268.03 453.148 269.69V278H451.168V263H453.148V265.19C454.228 263.49 455.758 262.64 457.738 262.64C459.918 262.64 461.438 263.55 462.298 265.37C463.378 263.55 464.998 262.64 467.158 262.64ZM479.028 258.38C479.028 258.78 478.888 259.12 478.608 259.4C478.328 259.68 477.988 259.82 477.588 259.82C477.188 259.82 476.848 259.68 476.568 259.4C476.288 259.12 476.148 258.78 476.148 258.38C476.148 257.98 476.288 257.64 476.568 257.36C476.848 257.08 477.188 256.94 477.588 256.94C477.988 256.94 478.328 257.08 478.608 257.36C478.888 257.64 479.028 257.98 479.028 258.38ZM478.578 278H476.598V263H478.578V278ZM484.76 278H482.78V256.1H484.76V278ZM491.391 258.38C491.391 258.78 491.251 259.12 490.971 259.4C490.691 259.68 490.351 259.82 489.951 259.82C489.551 259.82 489.211 259.68 488.931 259.4C488.651 259.12 488.511 258.78 488.511 258.38C488.511 257.98 488.651 257.64 488.931 257.36C489.211 257.08 489.551 256.94 489.951 256.94C490.351 256.94 490.691 257.08 490.971 257.36C491.251 257.64 491.391 257.98 491.391 258.38ZM490.941 278H488.961V263H490.941V278ZM508.043 265.94V263H510.023V284H508.043V275.06C506.663 277.26 504.643 278.36 501.983 278.36C499.843 278.36 498.013 277.6 496.493 276.08C494.993 274.56 494.243 272.7 494.243 270.5C494.243 268.3 494.993 266.44 496.493 264.92C498.013 263.4 499.843 262.64 501.983 262.64C504.643 262.64 506.663 263.74 508.043 265.94ZM497.933 274.73C499.073 275.87 500.473 276.44 502.133 276.44C503.793 276.44 505.193 275.87 506.333 274.73C507.473 273.55 508.043 272.14 508.043 270.5C508.043 268.84 507.473 267.44 506.333 266.3C505.193 265.14 503.793 264.56 502.133 264.56C500.473 264.56 499.073 265.14 497.933 266.3C496.793 267.44 496.223 268.84 496.223 270.5C496.223 272.14 496.793 273.55 497.933 274.73ZM524.775 270.86V263H526.755V278H524.775V275.66C523.655 277.46 521.975 278.36 519.735 278.36C517.935 278.36 516.505 277.81 515.445 276.71C514.385 275.59 513.855 274.09 513.855 272.21V263H515.835V272.21C515.835 273.55 516.185 274.59 516.885 275.33C517.605 276.07 518.615 276.44 519.915 276.44C521.415 276.44 522.595 275.97 523.455 275.03C524.335 274.09 524.775 272.7 524.775 270.86ZM537.874 262.64C540.114 262.64 541.904 263.43 543.244 265.01C544.624 266.57 545.314 268.42 545.314 270.56C545.314 270.66 545.294 270.97 545.254 271.49H532.084C532.284 272.99 532.924 274.19 534.004 275.09C535.084 275.99 536.434 276.44 538.054 276.44C540.334 276.44 541.944 275.59 542.884 273.89L544.624 274.91C543.964 275.99 543.054 276.84 541.894 277.46C540.754 278.06 539.464 278.36 538.024 278.36C535.664 278.36 533.744 277.62 532.264 276.14C530.784 274.66 530.044 272.78 530.044 270.5C530.044 268.24 530.774 266.37 532.234 264.89C533.694 263.39 535.574 262.64 537.874 262.64ZM537.874 264.56C536.314 264.56 535.004 265.02 533.944 265.94C532.904 266.86 532.284 268.07 532.084 269.57H543.274C543.054 267.97 542.444 266.74 541.444 265.88C540.404 265 539.214 264.56 537.874 264.56ZM563.913 263V264.92H559.593V274.01C559.593 274.83 559.753 275.42 560.073 275.78C560.393 276.12 560.873 276.3 561.513 276.32C562.153 276.32 562.953 276.3 563.913 276.26V278C561.773 278.32 560.183 278.17 559.143 277.55C558.123 276.91 557.613 275.73 557.613 274.01V264.92H554.463V263H557.613V259.4L559.593 258.8V263H563.913ZM573.235 262.64C575.475 262.64 577.265 263.43 578.605 265.01C579.985 266.57 580.675 268.42 580.675 270.56C580.675 270.66 580.655 270.97 580.615 271.49H567.445C567.645 272.99 568.285 274.19 569.365 275.09C570.445 275.99 571.795 276.44 573.415 276.44C575.695 276.44 577.305 275.59 578.245 273.89L579.985 274.91C579.325 275.99 578.415 276.84 577.255 277.46C576.115 278.06 574.825 278.36 573.385 278.36C571.025 278.36 569.105 277.62 567.625 276.14C566.145 274.66 565.405 272.78 565.405 270.5C565.405 268.24 566.135 266.37 567.595 264.89C569.055 263.39 570.935 262.64 573.235 262.64ZM573.235 264.56C571.675 264.56 570.365 265.02 569.305 265.94C568.265 266.86 567.645 268.07 567.445 269.57H578.635C578.415 267.97 577.805 266.74 576.805 265.88C575.765 265 574.575 264.56 573.235 264.56ZM590.845 262.64C592.645 262.64 594.075 263.2 595.135 264.32C596.195 265.42 596.725 266.91 596.725 268.79V278H594.745V268.79C594.745 267.45 594.385 266.41 593.665 265.67C592.965 264.93 591.965 264.56 590.665 264.56C589.165 264.56 587.975 265.03 587.095 265.97C586.235 266.91 585.805 268.3 585.805 270.14V278H583.825V263H585.805V265.34C586.925 263.54 588.605 262.64 590.845 262.64ZM607.483 262.64C609.723 262.64 611.513 263.43 612.853 265.01C614.233 266.57 614.923 268.42 614.923 270.56C614.923 270.66 614.903 270.97 614.863 271.49H601.693C601.893 272.99 602.533 274.19 603.613 275.09C604.693 275.99 606.043 276.44 607.663 276.44C609.943 276.44 611.553 275.59 612.493 273.89L614.233 274.91C613.573 275.99 612.663 276.84 611.503 277.46C610.363 278.06 609.073 278.36 607.633 278.36C605.273 278.36 603.353 277.62 601.873 276.14C600.393 274.66 599.653 272.78 599.653 270.5C599.653 268.24 600.383 266.37 601.843 264.89C603.303 263.39 605.183 262.64 607.483 262.64ZM607.483 264.56C605.923 264.56 604.613 265.02 603.553 265.94C602.513 266.86 601.893 268.07 601.693 269.57H612.883C612.663 267.97 612.053 266.74 611.053 265.88C610.013 265 608.823 264.56 607.483 264.56ZM625.583 263V264.92H621.263V274.01C621.263 274.83 621.423 275.42 621.743 275.78C622.063 276.12 622.543 276.3 623.183 276.32C623.823 276.32 624.623 276.3 625.583 276.26V278C623.443 278.32 621.853 278.17 620.813 277.55C619.793 276.91 619.283 275.73 619.283 274.01V264.92H616.133V263H619.283V259.4L621.263 258.8V263H625.583ZM639.443 270.86V263H641.423V278H639.443V275.66C638.323 277.46 636.643 278.36 634.403 278.36C632.603 278.36 631.173 277.81 630.113 276.71C629.053 275.59 628.523 274.09 628.523 272.21V263H630.503V272.21C630.503 273.55 630.853 274.59 631.553 275.33C632.273 276.07 633.283 276.44 634.583 276.44C636.083 276.44 637.263 275.97 638.123 275.03C639.003 274.09 639.443 272.7 639.443 270.86ZM647.592 263V265.49C648.512 263.67 650.092 262.76 652.332 262.76V264.68C650.892 264.68 649.742 265.1 648.882 265.94C648.022 266.76 647.592 268 647.592 269.66V278H645.612V263H647.592ZM88.08 314H86.1V292.1H88.08V314ZM94.7116 294.38C94.7116 294.78 94.5716 295.12 94.2916 295.4C94.0116 295.68 93.6716 295.82 93.2716 295.82C92.8716 295.82 92.5316 295.68 92.2516 295.4C91.9716 295.12 91.8316 294.78 91.8316 294.38C91.8316 293.98 91.9716 293.64 92.2516 293.36C92.5316 293.08 92.8716 292.94 93.2716 292.94C93.6716 292.94 94.0116 293.08 94.2916 293.36C94.5716 293.64 94.7116 293.98 94.7116 294.38ZM94.2616 314H92.2816V299H94.2616V314ZM106.503 298.64C108.643 298.64 110.463 299.4 111.963 300.92C113.483 302.44 114.243 304.3 114.243 306.5C114.243 308.7 113.483 310.56 111.963 312.08C110.463 313.6 108.643 314.36 106.503 314.36C103.843 314.36 101.823 313.26 100.443 311.06V314H98.4633V293H100.443V301.94C101.823 299.74 103.843 298.64 106.503 298.64ZM102.153 310.73C103.293 311.87 104.693 312.44 106.353 312.44C108.013 312.44 109.413 311.87 110.553 310.73C111.693 309.55 112.263 308.14 112.263 306.5C112.263 304.84 111.693 303.44 110.553 302.3C109.413 301.14 108.013 300.56 106.353 300.56C104.693 300.56 103.293 301.14 102.153 302.3C101.013 303.44 100.443 304.84 100.443 306.5C100.443 308.14 101.013 309.55 102.153 310.73ZM124.466 298.64C126.706 298.64 128.496 299.43 129.836 301.01C131.216 302.57 131.906 304.42 131.906 306.56C131.906 306.66 131.886 306.97 131.846 307.49H118.676C118.876 308.99 119.516 310.19 120.596 311.09C121.676 311.99 123.026 312.44 124.646 312.44C126.926 312.44 128.536 311.59 129.476 309.89L131.216 310.91C130.556 311.99 129.646 312.84 128.486 313.46C127.346 314.06 126.056 314.36 124.616 314.36C122.256 314.36 120.336 313.62 118.856 312.14C117.376 310.66 116.636 308.78 116.636 306.5C116.636 304.24 117.366 302.37 118.826 300.89C120.286 299.39 122.166 298.64 124.466 298.64ZM124.466 300.56C122.906 300.56 121.596 301.02 120.536 301.94C119.496 302.86 118.876 304.07 118.676 305.57H129.866C129.646 303.97 129.036 302.74 128.036 301.88C126.996 301 125.806 300.56 124.466 300.56ZM137.035 299V301.49C137.955 299.67 139.535 298.76 141.775 298.76V300.68C140.335 300.68 139.185 301.1 138.325 301.94C137.465 302.76 137.035 304 137.035 305.66V314H135.055V299H137.035ZM156.15 312.11C154.61 313.61 152.75 314.36 150.57 314.36C148.35 314.36 146.48 313.61 144.96 312.11C143.44 310.59 142.68 308.72 142.68 306.5C142.68 304.28 143.44 302.42 144.96 300.92C146.48 299.4 148.35 298.64 150.57 298.64C152.77 298.64 154.63 299.4 156.15 300.92C157.69 302.42 158.46 304.28 158.46 306.5C158.46 308.7 157.69 310.57 156.15 312.11ZM146.37 310.73C147.51 311.87 148.91 312.44 150.57 312.44C152.23 312.44 153.63 311.87 154.77 310.73C155.91 309.55 156.48 308.14 156.48 306.5C156.48 304.84 155.91 303.44 154.77 302.3C153.63 301.14 152.23 300.56 150.57 300.56C148.91 300.56 147.51 301.14 146.37 302.3C145.23 303.44 144.66 304.84 144.66 306.5C144.66 308.14 145.23 309.55 146.37 310.73ZM161.473 311.45H163.873L162.073 318.2H160.273L161.473 311.45ZM182.27 314.36C180.01 314.36 178.13 313.61 176.63 312.11C175.13 310.57 174.38 308.7 174.38 306.5C174.38 304.28 175.13 302.42 176.63 300.92C178.13 299.4 180.01 298.64 182.27 298.64C183.75 298.64 185.08 299 186.26 299.72C187.44 300.42 188.3 301.37 188.84 302.57L187.22 303.5C186.82 302.6 186.17 301.89 185.27 301.37C184.39 300.83 183.39 300.56 182.27 300.56C180.61 300.56 179.21 301.14 178.07 302.3C176.93 303.44 176.36 304.84 176.36 306.5C176.36 308.14 176.93 309.55 178.07 310.73C179.21 311.87 180.61 312.44 182.27 312.44C183.37 312.44 184.36 312.18 185.24 311.66C186.14 311.14 186.84 310.42 187.34 309.5L188.99 310.46C188.37 311.66 187.46 312.61 186.26 313.31C185.06 314.01 183.73 314.36 182.27 314.36ZM202.392 306.86V299H204.372V314H202.392V311.66C201.272 313.46 199.592 314.36 197.352 314.36C195.552 314.36 194.122 313.81 193.062 312.71C192.002 311.59 191.472 310.09 191.472 308.21V299H193.452V308.21C193.452 309.55 193.802 310.59 194.502 311.33C195.222 312.07 196.232 312.44 197.532 312.44C199.032 312.44 200.212 311.97 201.072 311.03C201.952 310.09 202.392 308.7 202.392 306.86ZM224.551 298.64C226.251 298.64 227.611 299.18 228.631 300.26C229.651 301.34 230.161 302.8 230.161 304.64V314H228.181V304.64C228.181 303.36 227.851 302.36 227.191 301.64C226.531 300.92 225.641 300.56 224.521 300.56C223.221 300.56 222.201 300.99 221.461 301.85C220.721 302.71 220.351 303.99 220.351 305.69V314H218.371V304.64C218.371 303.34 218.061 302.34 217.441 301.64C216.821 300.92 215.961 300.56 214.861 300.56C213.601 300.56 212.561 301 211.741 301.88C210.941 302.76 210.541 304.03 210.541 305.69V314H208.561V299H210.541V301.19C211.621 299.49 213.151 298.64 215.131 298.64C217.311 298.64 218.831 299.55 219.691 301.37C220.771 299.55 222.391 298.64 224.551 298.64ZM246.891 301.94V299H248.871V320H246.891V311.06C245.511 313.26 243.491 314.36 240.831 314.36C238.691 314.36 236.861 313.6 235.341 312.08C233.841 310.56 233.091 308.7 233.091 306.5C233.091 304.3 233.841 302.44 235.341 300.92C236.861 299.4 238.691 298.64 240.831 298.64C243.491 298.64 245.511 299.74 246.891 301.94ZM236.781 310.73C237.921 311.87 239.321 312.44 240.981 312.44C242.641 312.44 244.041 311.87 245.181 310.73C246.321 309.55 246.891 308.14 246.891 306.5C246.891 304.84 246.321 303.44 245.181 302.3C244.041 301.14 242.641 300.56 240.981 300.56C239.321 300.56 237.921 301.14 236.781 302.3C235.641 303.44 235.071 304.84 235.071 306.5C235.071 308.14 235.641 309.55 236.781 310.73ZM263.623 306.86V299H265.603V314H263.623V311.66C262.503 313.46 260.823 314.36 258.583 314.36C256.783 314.36 255.353 313.81 254.293 312.71C253.233 311.59 252.703 310.09 252.703 308.21V299H254.683V308.21C254.683 309.55 255.033 310.59 255.733 311.33C256.453 312.07 257.463 312.44 258.763 312.44C260.263 312.44 261.443 311.97 262.303 311.03C263.183 310.09 263.623 308.7 263.623 306.86ZM276.721 298.64C278.961 298.64 280.751 299.43 282.091 301.01C283.471 302.57 284.161 304.42 284.161 306.56C284.161 306.66 284.141 306.97 284.101 307.49H270.931C271.131 308.99 271.771 310.19 272.851 311.09C273.931 311.99 275.281 312.44 276.901 312.44C279.181 312.44 280.791 311.59 281.731 309.89L283.471 310.91C282.811 311.99 281.901 312.84 280.741 313.46C279.601 314.06 278.311 314.36 276.871 314.36C274.511 314.36 272.591 313.62 271.111 312.14C269.631 310.66 268.891 308.78 268.891 306.5C268.891 304.24 269.621 302.37 271.081 300.89C272.541 299.39 274.421 298.64 276.721 298.64ZM276.721 300.56C275.161 300.56 273.851 301.02 272.791 301.94C271.751 302.86 271.131 304.07 270.931 305.57H282.121C281.901 303.97 281.291 302.74 280.291 301.88C279.251 301 278.061 300.56 276.721 300.56ZM297.241 294.38C297.241 294.78 297.101 295.12 296.821 295.4C296.541 295.68 296.201 295.82 295.801 295.82C295.401 295.82 295.061 295.68 294.781 295.4C294.501 295.12 294.361 294.78 294.361 294.38C294.361 293.98 294.501 293.64 294.781 293.36C295.061 293.08 295.401 292.94 295.801 292.94C296.201 292.94 296.541 293.08 296.821 293.36C297.101 293.64 297.241 293.98 297.241 294.38ZM296.791 314H294.811V299H296.791V314ZM302.973 314H300.993V292.1H302.973V314ZM309.154 314H307.174V292.1H309.154V314ZM325.926 312.11C324.386 313.61 322.526 314.36 320.346 314.36C318.126 314.36 316.256 313.61 314.736 312.11C313.216 310.59 312.456 308.72 312.456 306.5C312.456 304.28 313.216 302.42 314.736 300.92C316.256 299.4 318.126 298.64 320.346 298.64C322.546 298.64 324.406 299.4 325.926 300.92C327.466 302.42 328.236 304.28 328.236 306.5C328.236 308.7 327.466 310.57 325.926 312.11ZM316.146 310.73C317.286 311.87 318.686 312.44 320.346 312.44C322.006 312.44 323.406 311.87 324.546 310.73C325.686 309.55 326.256 308.14 326.256 306.5C326.256 304.84 325.686 303.44 324.546 302.3C323.406 301.14 322.006 300.56 320.346 300.56C318.686 300.56 317.286 301.14 316.146 302.3C315.006 303.44 314.436 304.84 314.436 306.5C314.436 308.14 315.006 309.55 316.146 310.73ZM351.949 301.94V299H353.929V314H351.949V311.06C350.569 313.26 348.549 314.36 345.889 314.36C343.749 314.36 341.919 313.6 340.399 312.08C338.899 310.56 338.149 308.7 338.149 306.5C338.149 304.3 338.899 302.44 340.399 300.92C341.919 299.4 343.749 298.64 345.889 298.64C348.549 298.64 350.569 299.74 351.949 301.94ZM341.839 310.73C342.979 311.87 344.379 312.44 346.039 312.44C347.699 312.44 349.099 311.87 350.239 310.73C351.379 309.55 351.949 308.14 351.949 306.5C351.949 304.84 351.379 303.44 350.239 302.3C349.099 301.14 347.699 300.56 346.039 300.56C344.379 300.56 342.979 301.14 341.839 302.3C340.699 303.44 340.129 304.84 340.129 306.5C340.129 308.14 340.699 309.55 341.839 310.73ZM372.611 314.36C370.351 314.36 368.471 313.61 366.971 312.11C365.471 310.57 364.721 308.7 364.721 306.5C364.721 304.28 365.471 302.42 366.971 300.92C368.471 299.4 370.351 298.64 372.611 298.64C374.091 298.64 375.421 299 376.601 299.72C377.781 300.42 378.641 301.37 379.181 302.57L377.561 303.5C377.161 302.6 376.511 301.89 375.611 301.37C374.731 300.83 373.731 300.56 372.611 300.56C370.951 300.56 369.551 301.14 368.411 302.3C367.271 303.44 366.701 304.84 366.701 306.5C366.701 308.14 367.271 309.55 368.411 310.73C369.551 311.87 370.951 312.44 372.611 312.44C373.711 312.44 374.701 312.18 375.581 311.66C376.481 311.14 377.181 310.42 377.681 309.5L379.331 310.46C378.711 311.66 377.801 312.61 376.601 313.31C375.401 314.01 374.071 314.36 372.611 314.36ZM394.598 312.11C393.058 313.61 391.198 314.36 389.018 314.36C386.798 314.36 384.928 313.61 383.408 312.11C381.888 310.59 381.128 308.72 381.128 306.5C381.128 304.28 381.888 302.42 383.408 300.92C384.928 299.4 386.798 298.64 389.018 298.64C391.218 298.64 393.078 299.4 394.598 300.92C396.138 302.42 396.908 304.28 396.908 306.5C396.908 308.7 396.138 310.57 394.598 312.11ZM384.818 310.73C385.958 311.87 387.358 312.44 389.018 312.44C390.678 312.44 392.078 311.87 393.218 310.73C394.358 309.55 394.928 308.14 394.928 306.5C394.928 304.84 394.358 303.44 393.218 302.3C392.078 301.14 390.678 300.56 389.018 300.56C387.358 300.56 385.958 301.14 384.818 302.3C383.678 303.44 383.108 304.84 383.108 306.5C383.108 308.14 383.678 309.55 384.818 310.73ZM407.241 298.64C409.041 298.64 410.471 299.2 411.531 300.32C412.591 301.42 413.121 302.91 413.121 304.79V314H411.141V304.79C411.141 303.45 410.781 302.41 410.061 301.67C409.361 300.93 408.361 300.56 407.061 300.56C405.561 300.56 404.371 301.03 403.491 301.97C402.631 302.91 402.201 304.3 402.201 306.14V314H400.221V299H402.201V301.34C403.321 299.54 405.001 298.64 407.241 298.64ZM418.51 302.93C418.51 304.09 419.54 304.94 421.6 305.48C422.18 305.62 422.56 305.72 422.74 305.78C422.92 305.82 423.27 305.93 423.79 306.11C424.33 306.27 424.7 306.41 424.9 306.53C425.12 306.65 425.42 306.84 425.8 307.1C426.18 307.34 426.45 307.59 426.61 307.85C426.77 308.09 426.92 308.41 427.06 308.81C427.2 309.19 427.27 309.6 427.27 310.04C427.27 311.32 426.76 312.36 425.74 313.16C424.76 313.96 423.46 314.36 421.84 314.36C420.44 314.36 419.23 314.05 418.21 313.43C417.19 312.79 416.47 311.95 416.05 310.91L417.73 309.92C418.01 310.7 418.51 311.32 419.23 311.78C419.97 312.22 420.84 312.44 421.84 312.44C422.86 312.44 423.69 312.24 424.33 311.84C424.97 311.44 425.29 310.84 425.29 310.04C425.29 308.88 424.26 308.03 422.2 307.49C421.62 307.35 421.24 307.26 421.06 307.22C420.88 307.16 420.52 307.05 419.98 306.89C419.46 306.71 419.09 306.56 418.87 306.44C418.67 306.32 418.38 306.14 418 305.9C417.62 305.64 417.35 305.39 417.19 305.15C417.03 304.89 416.88 304.57 416.74 304.19C416.6 303.79 416.53 303.37 416.53 302.93C416.53 301.71 417.01 300.69 417.97 299.87C418.97 299.05 420.2 298.64 421.66 298.64C422.86 298.64 423.92 298.91 424.84 299.45C425.78 299.99 426.47 300.74 426.91 301.7L425.26 302.66C424.7 301.26 423.5 300.56 421.66 300.56C420.76 300.56 420.01 300.77 419.41 301.19C418.81 301.61 418.51 302.19 418.51 302.93ZM437.063 298.64C439.303 298.64 441.093 299.43 442.433 301.01C443.813 302.57 444.503 304.42 444.503 306.56C444.503 306.66 444.483 306.97 444.443 307.49H431.273C431.473 308.99 432.113 310.19 433.193 311.09C434.273 311.99 435.623 312.44 437.243 312.44C439.523 312.44 441.133 311.59 442.073 309.89L443.813 310.91C443.153 311.99 442.243 312.84 441.083 313.46C439.943 314.06 438.653 314.36 437.213 314.36C434.853 314.36 432.933 313.62 431.453 312.14C429.973 310.66 429.233 308.78 429.233 306.5C429.233 304.24 429.963 302.37 431.423 300.89C432.883 299.39 434.763 298.64 437.063 298.64ZM437.063 300.56C435.503 300.56 434.193 301.02 433.133 301.94C432.093 302.86 431.473 304.07 431.273 305.57H442.463C442.243 303.97 441.633 302.74 440.633 301.88C439.593 301 438.403 300.56 437.063 300.56ZM460.553 301.94V299H462.533V320H460.553V311.06C459.173 313.26 457.153 314.36 454.493 314.36C452.353 314.36 450.523 313.6 449.003 312.08C447.503 310.56 446.753 308.7 446.753 306.5C446.753 304.3 447.503 302.44 449.003 300.92C450.523 299.4 452.353 298.64 454.493 298.64C457.153 298.64 459.173 299.74 460.553 301.94ZM450.443 310.73C451.583 311.87 452.983 312.44 454.643 312.44C456.303 312.44 457.703 311.87 458.843 310.73C459.983 309.55 460.553 308.14 460.553 306.5C460.553 304.84 459.983 303.44 458.843 302.3C457.703 301.14 456.303 300.56 454.643 300.56C452.983 300.56 451.583 301.14 450.443 302.3C449.303 303.44 448.733 304.84 448.733 306.5C448.733 308.14 449.303 309.55 450.443 310.73ZM477.285 306.86V299H479.265V314H477.285V311.66C476.165 313.46 474.485 314.36 472.245 314.36C470.445 314.36 469.015 313.81 467.955 312.71C466.895 311.59 466.365 310.09 466.365 308.21V299H468.345V308.21C468.345 309.55 468.695 310.59 469.395 311.33C470.115 312.07 471.125 312.44 472.425 312.44C473.925 312.44 475.105 311.97 475.965 311.03C476.845 310.09 477.285 308.7 477.285 306.86ZM494.014 306.86V299H495.994V314H494.014V311.66C492.894 313.46 491.214 314.36 488.974 314.36C487.174 314.36 485.744 313.81 484.684 312.71C483.624 311.59 483.094 310.09 483.094 308.21V299H485.074V308.21C485.074 309.55 485.424 310.59 486.124 311.33C486.844 312.07 487.854 312.44 489.154 312.44C490.654 312.44 491.834 311.97 492.694 311.03C493.574 310.09 494.014 308.7 494.014 306.86ZM507.202 298.64C509.002 298.64 510.432 299.2 511.492 300.32C512.552 301.42 513.082 302.91 513.082 304.79V314H511.102V304.79C511.102 303.45 510.742 302.41 510.022 301.67C509.322 300.93 508.322 300.56 507.022 300.56C505.522 300.56 504.332 301.03 503.452 301.97C502.592 302.91 502.162 304.3 502.162 306.14V314H500.182V299H502.162V301.34C503.282 299.54 504.962 298.64 507.202 298.64ZM524.861 299V300.92H520.541V310.01C520.541 310.83 520.701 311.42 521.021 311.78C521.341 312.12 521.821 312.3 522.461 312.32C523.101 312.32 523.901 312.3 524.861 312.26V314C522.721 314.32 521.131 314.17 520.091 313.55C519.071 312.91 518.561 311.73 518.561 310.01V300.92H515.411V299H518.561V295.4L520.541 294.8V299H524.861ZM538.721 306.86V299H540.701V314H538.721V311.66C537.601 313.46 535.921 314.36 533.681 314.36C531.881 314.36 530.451 313.81 529.391 312.71C528.331 311.59 527.801 310.09 527.801 308.21V299H529.781V308.21C529.781 309.55 530.131 310.59 530.831 311.33C531.551 312.07 532.561 312.44 533.861 312.44C535.361 312.44 536.541 311.97 537.401 311.03C538.281 310.09 538.721 308.7 538.721 306.86ZM546.869 299V301.49C547.789 299.67 549.369 298.76 551.609 298.76V300.68C550.169 300.68 549.019 301.1 548.159 301.94C547.299 302.76 546.869 304 546.869 305.66V314H544.889V299H546.869ZM563.803 299V301.49C564.723 299.67 566.303 298.76 568.543 298.76V300.68C567.103 300.68 565.953 301.1 565.093 301.94C564.233 302.76 563.803 304 563.803 305.66V314H561.823V299H563.803ZM577.278 298.64C579.518 298.64 581.308 299.43 582.648 301.01C584.028 302.57 584.718 304.42 584.718 306.56C584.718 306.66 584.698 306.97 584.658 307.49H571.488C571.688 308.99 572.328 310.19 573.408 311.09C574.488 311.99 575.838 312.44 577.458 312.44C579.738 312.44 581.348 311.59 582.288 309.89L584.028 310.91C583.368 311.99 582.458 312.84 581.298 313.46C580.158 314.06 578.868 314.36 577.428 314.36C575.068 314.36 573.148 313.62 571.668 312.14C570.188 310.66 569.448 308.78 569.448 306.5C569.448 304.24 570.178 302.37 571.638 300.89C573.098 299.39 574.978 298.64 577.278 298.64ZM577.278 300.56C575.718 300.56 574.408 301.02 573.348 301.94C572.308 302.86 571.688 304.07 571.488 305.57H582.678C582.458 303.97 581.848 302.74 580.848 301.88C579.808 301 578.618 300.56 577.278 300.56ZM589.848 299V301.49C590.768 299.67 592.348 298.76 594.588 298.76V300.68C593.148 300.68 591.998 301.1 591.138 301.94C590.278 302.76 589.848 304 589.848 305.66V314H587.868V299H589.848ZM607.861 306.86V299H609.841V314H607.861V311.66C606.741 313.46 605.061 314.36 602.821 314.36C601.021 314.36 599.591 313.81 598.531 312.71C597.471 311.59 596.941 310.09 596.941 308.21V299H598.921V308.21C598.921 309.55 599.271 310.59 599.971 311.33C600.691 312.07 601.701 312.44 603.001 312.44C604.501 312.44 605.681 311.97 606.541 311.03C607.421 310.09 607.861 308.7 607.861 306.86ZM630.02 298.64C631.72 298.64 633.08 299.18 634.1 300.26C635.12 301.34 635.63 302.8 635.63 304.64V314H633.65V304.64C633.65 303.36 633.32 302.36 632.66 301.64C632 300.92 631.11 300.56 629.99 300.56C628.69 300.56 627.67 300.99 626.93 301.85C626.19 302.71 625.82 303.99 625.82 305.69V314H623.84V304.64C623.84 303.34 623.53 302.34 622.91 301.64C622.29 300.92 621.43 300.56 620.33 300.56C619.07 300.56 618.03 301 617.21 301.88C616.41 302.76 616.01 304.03 616.01 305.69V314H614.03V299H616.01V301.19C617.09 299.49 618.62 298.64 620.6 298.64C622.78 298.64 624.3 299.55 625.16 301.37C626.24 299.55 627.86 298.64 630.02 298.64ZM642.459 312.65C642.459 313.11 642.299 313.5 641.979 313.82C641.659 314.14 641.269 314.3 640.809 314.3C640.349 314.3 639.959 314.14 639.639 313.82C639.319 313.5 639.159 313.11 639.159 312.65C639.159 312.19 639.319 311.8 639.639 311.48C639.959 311.16 640.349 311 640.809 311C641.269 311 641.659 311.16 641.979 311.48C642.299 311.8 642.459 312.19 642.459 312.65ZM649.373 312.65C649.373 313.11 649.213 313.5 648.893 313.82C648.573 314.14 648.183 314.3 647.723 314.3C647.263 314.3 646.873 314.14 646.553 313.82C646.233 313.5 646.073 313.11 646.073 312.65C646.073 312.19 646.233 311.8 646.553 311.48C646.873 311.16 647.263 311 647.723 311C648.183 311 648.573 311.16 648.893 311.48C649.213 311.8 649.373 312.19 649.373 312.65ZM656.288 312.65C656.288 313.11 656.128 313.5 655.808 313.82C655.488 314.14 655.098 314.3 654.638 314.3C654.178 314.3 653.788 314.14 653.468 313.82C653.148 313.5 652.988 313.11 652.988 312.65C652.988 312.19 653.148 311.8 653.468 311.48C653.788 311.16 654.178 311 654.638 311C655.098 311 655.488 311.16 655.808 311.48C656.128 311.8 656.288 312.19 656.288 312.65Z" fill="white"/>
<path d="M339.55 81H334.15V44.5H339.55V81ZM366.97 77.85C364.437 80.3833 361.32 81.65 357.62 81.65C353.92 81.65 350.803 80.3833 348.27 77.85C345.703 75.2833 344.42 72.1667 344.42 68.5C344.42 64.8333 345.703 61.7167 348.27 59.15C350.803 56.6167 353.92 55.35 357.62 55.35C361.32 55.35 364.437 56.6167 366.97 59.15C369.537 61.7167 370.82 64.8333 370.82 68.5C370.82 72.1667 369.537 75.2833 366.97 77.85ZM349.82 68.5C349.82 70.7667 350.57 72.65 352.07 74.15C353.57 75.65 355.42 76.4 357.62 76.4C359.82 76.4 361.67 75.65 363.17 74.15C364.67 72.65 365.42 70.7667 365.42 68.5C365.42 66.2333 364.67 64.35 363.17 62.85C361.67 61.35 359.82 60.6 357.62 60.6C355.42 60.6 353.57 61.35 352.07 62.85C350.57 64.35 349.82 66.2333 349.82 68.5ZM381.103 56V60.2C382.469 57.1 385.036 55.55 388.803 55.55V61.4C386.769 61.2667 384.969 61.7667 383.403 62.9C381.869 64 381.103 65.8333 381.103 68.4V81H375.703V56H381.103ZM415.771 70.8H395.871C396.271 72.6667 397.171 74.1167 398.571 75.15C400.004 76.1833 401.771 76.7 403.871 76.7C406.704 76.7 408.854 75.6667 410.321 73.6L414.771 76.2C412.337 79.8333 408.687 81.65 403.821 81.65C399.787 81.65 396.504 80.4167 393.971 77.95C391.471 75.45 390.221 72.3 390.221 68.5C390.221 64.8 391.454 61.6833 393.921 59.15C396.354 56.6167 399.521 55.35 403.421 55.35C407.054 55.35 410.054 56.6333 412.421 59.2C414.787 61.7667 415.971 64.8833 415.971 68.55C415.971 69.2167 415.904 69.9667 415.771 70.8ZM395.821 66.4H410.521C410.154 64.4333 409.321 62.9167 408.021 61.85C406.754 60.7833 405.204 60.25 403.371 60.25C401.371 60.25 399.704 60.8 398.371 61.9C397.037 63 396.187 64.5 395.821 66.4ZM448.022 55.35C450.856 55.35 453.139 56.2667 454.872 58.1C456.606 59.9333 457.472 62.4 457.472 65.5V81H452.072V65.85C452.072 64.15 451.639 62.8167 450.772 61.85C449.906 60.8833 448.722 60.4 447.222 60.4C445.522 60.4 444.189 60.9667 443.222 62.1C442.256 63.2 441.772 64.8333 441.772 67V81H436.372V65.85C436.372 64.1167 435.956 62.7833 435.122 61.85C434.322 60.8833 433.172 60.4 431.672 60.4C430.006 60.4 428.656 60.9667 427.622 62.1C426.622 63.2333 426.122 64.8667 426.122 67V81H420.722V56H426.122V59C427.722 56.5667 430.106 55.35 433.272 55.35C436.472 55.35 438.839 56.6667 440.372 59.3C442.006 56.6667 444.556 55.35 448.022 55.35ZM480.852 51.25C480.185 51.9167 479.385 52.25 478.452 52.25C477.518 52.25 476.702 51.9167 476.002 51.25C475.335 50.55 475.002 49.7333 475.002 48.8C475.002 47.8667 475.335 47.0667 476.002 46.4C476.668 45.7 477.485 45.35 478.452 45.35C479.418 45.35 480.235 45.7 480.902 46.4C481.568 47.0667 481.902 47.8667 481.902 48.8C481.902 49.7333 481.552 50.55 480.852 51.25ZM481.152 81H475.752V56H481.152V81ZM501.571 55.35C504.971 55.35 507.905 56.6333 510.371 59.2C512.805 61.7333 514.021 64.8333 514.021 68.5C514.021 72.2 512.805 75.3167 510.371 77.85C507.938 80.3833 505.005 81.65 501.571 81.65C497.805 81.65 494.888 80.25 492.821 77.45V91H487.421V56H492.821V59.6C494.855 56.7667 497.771 55.35 501.571 55.35ZM495.071 74.25C496.571 75.75 498.455 76.5 500.721 76.5C502.988 76.5 504.871 75.75 506.371 74.25C507.871 72.7167 508.621 70.8 508.621 68.5C508.621 66.2 507.871 64.3 506.371 62.8C504.871 61.2667 502.988 60.5 500.721 60.5C498.455 60.5 496.571 61.2667 495.071 62.8C493.571 64.3 492.821 66.2 492.821 68.5C492.821 70.7667 493.571 72.6833 495.071 74.25ZM523.277 62.9C523.277 63.6667 523.677 64.3 524.477 64.8C525.277 65.2667 526.444 65.7167 527.977 66.15C529.144 66.4167 530.161 66.7 531.027 67C531.894 67.3 532.811 67.75 533.777 68.35C534.744 68.9167 535.477 69.6833 535.977 70.65C536.511 71.5833 536.761 72.6833 536.727 73.95C536.727 76.35 535.794 78.2333 533.927 79.6C532.061 80.9667 529.744 81.65 526.977 81.65C524.511 81.65 522.394 81.1333 520.627 80.1C518.861 79.0667 517.577 77.6333 516.777 75.8L521.427 73.1C522.261 75.5 524.111 76.7 526.977 76.7C529.811 76.7 531.227 75.7667 531.227 73.9C531.227 72.5333 529.644 71.4667 526.477 70.7C525.277 70.4 524.261 70.1 523.427 69.8C522.627 69.5 521.727 69.0667 520.727 68.5C519.761 67.9333 519.011 67.1833 518.477 66.25C517.977 65.3167 517.744 64.2333 517.777 63C517.777 60.7 518.644 58.85 520.377 57.45C522.144 56.05 524.327 55.35 526.927 55.35C528.994 55.35 530.827 55.8167 532.427 56.75C534.061 57.65 535.311 58.9167 536.177 60.55L531.627 63.1C530.794 61.2 529.227 60.25 526.927 60.25C525.861 60.25 524.977 60.4833 524.277 60.95C523.611 61.4167 523.277 62.0667 523.277 62.9ZM558.031 69.4V56H563.431V81H558.031V77.8C556.365 80.3667 553.781 81.65 550.281 81.65C547.381 81.65 545.048 80.7333 543.281 78.9C541.548 77.0333 540.681 74.5167 540.681 71.35V56H546.081V70.8C546.081 72.6667 546.581 74.1 547.581 75.1C548.581 76.1 549.948 76.6 551.681 76.6C553.648 76.6 555.198 76 556.331 74.8C557.465 73.5667 558.031 71.7667 558.031 69.4ZM597.046 55.35C599.879 55.35 602.162 56.2667 603.896 58.1C605.629 59.9333 606.496 62.4 606.496 65.5V81H601.096V65.85C601.096 64.15 600.662 62.8167 599.796 61.85C598.929 60.8833 597.746 60.4 596.246 60.4C594.546 60.4 593.212 60.9667 592.246 62.1C591.279 63.2 590.796 64.8333 590.796 67V81H585.396V65.85C585.396 64.1167 584.979 62.7833 584.146 61.85C583.346 60.8833 582.196 60.4 580.696 60.4C579.029 60.4 577.679 60.9667 576.646 62.1C575.646 63.2333 575.146 64.8667 575.146 67V81H569.746V56H575.146V59C576.746 56.5667 579.129 55.35 582.296 55.35C585.496 55.35 587.862 56.6667 589.396 59.3C591.029 56.6667 593.579 55.35 597.046 55.35Z" fill="white"/>
<defs>
<linearGradient id="paint0_linear" x1="470.5" y1="0" x2="470.5" y2="412" gradientUnits="userSpaceOnUse">
<stop stop-color="#704777"/>
<stop offset="1" stop-color="#DF0086" stop-opacity="0"/>
</linearGradient>
</defs>
</svg>
